<?xml version="1.0" encoding="UTF-8" standalone="no"?>
<!-- Created with Inkscape (http://www.inkscape.org/) -->

<svg
   version="1.1"
   id="svg83"
   xml:space="preserve"
   width="185.83867"
   height="195.82133"
   viewBox="0 0 185.83867 195.82134"
   sodipodi:docname="acc_logo.svg"
   inkscape:version="1.1.1 (3bf5ae0d25, 2021-09-20)"
   xmlns:inkscape="http://www.inkscape.org/namespaces/inkscape"
   xmlns:sodipodi="http://sodipodi.sourceforge.net/DTD/sodipodi-0.dtd"
   xmlns="http://www.w3.org/2000/svg"
   xmlns:svg="http://www.w3.org/2000/svg"><defs
     id="defs87"><clipPath
       clipPathUnits="userSpaceOnUse"
       id="clipPath97"><path
         d="m 428.602,313.729 -50.486,-10.394 h 58.448 l 9.92,29.831 V 279.69 c 4.325,-0.69 9.569,-0.47 14.729,1.249 v 0 c 2.3,0.766 4.338,1.697 6.434,2.927 v 0 l 9.104,19.573 40.744,10.392 h -48.7 l -11.92,-32.256 v 77.727 25.944 z m 17.882,-75.349 7.352,15.801 c -2.454,-0.119 -4.907,-0.081 -7.352,0.116 v 0 z"
         id="path95" /></clipPath><radialGradient
       fx="0.051178001"
       fy="-0.0056152302"
       cx="0"
       cy="0"
       r="1"
       gradientUnits="userSpaceOnUse"
       gradientTransform="matrix(71.585861,0,0,-71.585846,414.47119,306.48047)"
       spreadMethod="pad"
       id="radialGradient109"><stop
         style="stop-opacity:1;stop-color:#44c2ce"
         offset="0"
         id="stop103" /><stop
         style="stop-opacity:1;stop-color:#44c2ce"
         offset="0.49647786"
         id="stop105" /><stop
         style="stop-opacity:1;stop-color:#0d446f"
         offset="1"
         id="stop107" /></radialGradient><clipPath
       clipPathUnits="userSpaceOnUse"
       id="clipPath119"><path
         d="m 396.956,300.887 c 5.217,-26.112 27.563,-44.297 54.551,-44.297 v 0 c 16.053,0 30.684,6.705 41.25,18.891 v 0 l -14.431,14.433 C 471.687,281.668 461.86,276.95 451.273,276.95 v 0 c -15.417,0 -28.452,9.384 -33.31,23.937 v 0 z"
         id="path117" /></clipPath><radialGradient
       fx="0"
       fy="0"
       cx="0"
       cy="0"
       r="1"
       gradientUnits="userSpaceOnUse"
       gradientTransform="matrix(47.332535,40.999573,40.999573,-47.332535,420.78369,276.5791)"
       spreadMethod="pad"
       id="radialGradient131"><stop
         style="stop-opacity:1;stop-color:#4cb5e4"
         offset="0"
         id="stop125" /><stop
         style="stop-opacity:1;stop-color:#4cb5e4"
         offset="0.46128817"
         id="stop127" /><stop
         style="stop-opacity:1;stop-color:#292562"
         offset="1"
         id="stop129" /></radialGradient><clipPath
       clipPathUnits="userSpaceOnUse"
       id="clipPath141"><path
         d="m 459.324,345.766 c 7.428,-1.79 14.143,-6.053 19.002,-12.061 v 0 l 14.451,14.453 c -8.527,9.759 -20.665,16.4 -33.453,18.305 v 0 z"
         id="path139" /></clipPath><radialGradient
       fx="0"
       fy="0"
       cx="0"
       cy="0"
       r="1"
       gradientUnits="userSpaceOnUse"
       gradientTransform="matrix(47.333038,41,41,-47.333023,420.78271,276.5791)"
       spreadMethod="pad"
       id="radialGradient153"><stop
         style="stop-opacity:1;stop-color:#4cb5e4"
         offset="0"
         id="stop147" /><stop
         style="stop-opacity:1;stop-color:#4cb5e4"
         offset="0.46128817"
         id="stop149" /><stop
         style="stop-opacity:1;stop-color:#292562"
         offset="1"
         id="stop151" /></radialGradient><clipPath
       clipPathUnits="userSpaceOnUse"
       id="clipPath163"><path
         d="m 412.079,350.914 c -10.93,-10.926 -16.799,-25.992 -16.156,-41.42 v 0 l 20.428,4.205 c 0.51,6.436 1.732,11.719 6.031,17.929 v 0 c 3.346,4.841 7.91,8.795 13.196,11.436 v 0 c 0.819,0.408 1.635,0.78 2.425,1.104 v 0 l 8.994,22.743 c -13.179,-0.973 -25.552,-6.635 -34.918,-15.997"
         id="path161" /></clipPath><radialGradient
       fx="0"
       fy="0"
       cx="0"
       cy="0"
       r="1"
       gradientUnits="userSpaceOnUse"
       gradientTransform="matrix(47.332993,40.999969,40.999969,-47.332977,420.78271,276.5791)"
       spreadMethod="pad"
       id="radialGradient175"><stop
         style="stop-opacity:1;stop-color:#4cb5e4"
         offset="0"
         id="stop169" /><stop
         style="stop-opacity:1;stop-color:#4cb5e4"
         offset="0.46128817"
         id="stop171" /><stop
         style="stop-opacity:1;stop-color:#292562"
         offset="1"
         id="stop173" /></radialGradient></defs><sodipodi:namedview
     id="namedview85"
     pagecolor="#505050"
     bordercolor="#eeeeee"
     borderopacity="1"
     inkscape:pageshadow="0"
     inkscape:pageopacity="0"
     inkscape:pagecheckerboard="0"
     showgrid="false"
     inkscape:zoom="2.2753985"
     inkscape:cx="76.25038"
     inkscape:cy="133.16349"
     inkscape:window-width="3840"
     inkscape:window-height="2107"
     inkscape:window-x="0"
     inkscape:window-y="32"
     inkscape:window-maximized="1"
     inkscape:current-layer="g89" /><g
     id="g89"
     inkscape:groupmode="layer"
     inkscape:label="A&amp;C-logo-2012-fin"
     transform="matrix(1.3333333,0,0,-1.3333333,-504.15465,513.66132)"><g
       id="g91"><g
         id="g93"
         clip-path="url(#clipPath97)"><g
           id="g99"><g
             id="g101"><path
               d="m 428.602,313.729 -50.486,-10.394 h 58.448 l 9.92,29.831 V 279.69 c 4.325,-0.69 9.569,-0.47 14.729,1.249 v 0 c 2.3,0.766 4.338,1.697 6.434,2.927 v 0 l 9.104,19.573 40.744,10.392 h -48.7 l -11.92,-32.256 v 77.727 25.944 z m 17.882,-75.349 7.352,15.801 c -2.454,-0.119 -4.907,-0.081 -7.352,0.116 v 0 z"
               style="fill:url(#radialGradient109);stroke:none"
               id="path111" /></g></g></g></g><g
       id="g113"><g
         id="g115"
         clip-path="url(#clipPath119)"><g
           id="g121"><g
             id="g123"><path
               d="m 396.956,300.887 c 5.217,-26.112 27.563,-44.297 54.551,-44.297 v 0 c 16.053,0 30.684,6.705 41.25,18.891 v 0 l -14.431,14.433 C 471.687,281.668 461.86,276.95 451.273,276.95 v 0 c -15.417,0 -28.452,9.384 -33.31,23.937 v 0 z"
               style="fill:url(#radialGradient131);stroke:none"
               id="path133" /></g></g></g></g><g
       id="g135"><g
         id="g137"
         clip-path="url(#clipPath141)"><g
           id="g143"><g
             id="g145"><path
               d="m 459.324,345.766 c 7.428,-1.79 14.143,-6.053 19.002,-12.061 v 0 l 14.451,14.453 c -8.527,9.759 -20.665,16.4 -33.453,18.305 v 0 z"
               style="fill:url(#radialGradient153);stroke:none"
               id="path155" /></g></g></g></g><g
       id="g157"><g
         id="g159"
         clip-path="url(#clipPath163)"><g
           id="g165"><g
             id="g167"><path
               d="m 412.079,350.914 c -10.93,-10.926 -16.799,-25.992 -16.156,-41.42 v 0 l 20.428,4.205 c 0.51,6.436 1.732,11.719 6.031,17.929 v 0 c 3.346,4.841 7.91,8.795 13.196,11.436 v 0 c 0.819,0.408 1.635,0.78 2.425,1.104 v 0 l 8.994,22.743 c -13.179,-0.973 -25.552,-6.635 -34.918,-15.997"
               style="fill:url(#radialGradient175);stroke:none"
               id="path177" /></g></g></g></g></g></svg>
