<?xml version="1.0" encoding="UTF-8"?>
<svg version="1.1" viewBox="0 0 2048 688" width="1308" height="440" xmlns="http://www.w3.org/2000/svg">
<path transform="translate(0)" d="m0 0h2048v688h-2048z" fill="#FDFDFD"/>
<path transform="translate(402,32)" d="m0 0 8 3 5 6 1 5h2l3 6 21 114 1 6h5l8 44v3l5-1-2-13-6-34 3-1-13-69-6-35 1-6 4-7 4-2h7l4 1v2l4 2 3 6-1 6-5 7-2 2 15 82 1 8 4-1 2 5 7 38 1 5 5-1-8-42v-6h2l-13-71v-11l8-11 10-14 1-2v-8l4-7 4-3h7l7 3 4 7-1 8-6 7-5 1-1 4-13 19-2 3 2 14 10 53 2 4h3l5 25 4 21 5 1-8-43v-5l2-2-7-38 1-9 13-19 1-8 5-7 4-2 8 1 6 4 3 6-1 9-5 6-8 4-9 13 1 11 5 26 5 2 8 44v2l4-1v-7l-7-38 1-3h2l-4-18-3-4-1-6 4-8 5-4 5-1 8 4 4 5 1 6-4 8-2 3 2 5 1 7 4-1 2 7 7 38v3l15-3 2 7 3 14 2-3 25-5 23-4v3l30-6 8-11 15-22 5-8v-7l4-8 6-3 8 1 6 5 2 3v7l-4 7-9 6-16 23-10 15-3 5-5 3-32 6-1 5-44 8h-4l-3-3 1 13h3v-4l42-8h6v2l114-21h5l2-5 8-11 6-8 1-9 4-6 5-3 9 1 5 5 2 3v8l-5 7-8 5-15 22-7 6-119 22h-3v5l-43 8h-5v-3l-2 1 1 12h3v-4l42-8h6v2l143-26h5l1 15-6 2-125 23-11 2h-4l1 5-31 6-11 2h-7v-2h-3l2 7v6h3l1-5 43-8h9l108-20h4l2-5 5-3h7l7 4 4 7-1 6-4 6-5 3-9-1-4-1-114 21h-2l1 6-24 5-17 3h-7v-2h-3l1 11h3v-4l43-8h5v2l82-15h8l5 1v3l5 2 14 10 8 4 6 1 6 4 3 5-1 9-4 5-6 3-6-1-7-5-2-4v-5l-4-1-21-14-14 2-64 12h-4v5l-31 6-12 2h-5v-3l-2 1 1 12h2l1-4 43-8h5l1 2 50-9 9 2 18 12 16 11 23 16 12 8 4 3 11-1 9-1 6-6h8l5 2 5 8v6l-6 8-4 2-8-1-3-2-10 1-11 2-8-1-22-15-23-16-24-16-5-4-13 1-32 6h-5v5l-13 3-28 5h-7l-2-2 1 13h3l1-5 44-8h3v4l44-8 10 4 24 16 11 8 22 15 15 10 9 3 5 5 2 4-1 6-4 6-5 3-9-1-6-5-3-7-15-11-24-16-11-8-19-13-1-1-10 1-27 5h-3l-1 4-45 8h-2v-3h-3l2 13h2v-4l24-5 24-4 4 14 27 18 9 4 4 5 1 7-5 9-4 2h-9l-6-5v-2h-2v-8l-5-2-22-15-10 1-22 4h-4l-2-2 2 18-17 4-1 2h4l8 42v6l-5 1 2 12 15 11 10 6 49-9 4-2 5-4h8l3 1v2l4 2 3 6-1 6-7 8-2 1-9-1-5-3-24 5-25 5-4 1-9-4-20-14-6-3-5-8-2-10v-5h-2l-5-25-4-23h3v-3l-12 3 4 2 8 42v5l-4 1 7 36 4 7 12 8 22 15 3 1 9 1 5 4 3 5v8l-6 8-4 2-7-1-6-4-1-3h-2v-7l-5-1-11-8-22-15-6-5-4-7-7-38v-3l-4-1-8-46 3-1v-2l-12 2 4 1 5 30 3 15-1 4-3 2 5 25 2 1v2h2l4 8-2 7-4 5-3 2-8 1-8-4-3-5v-8l3-5-2-13-2-10v-4l-4-1-8-43 1-5h2v-2l-13 2v2h4l9 46v2l-4 2 13 71 10 7 9 2 6 4 4 7-3 9-6 5-6 1-6-2v-2l-3-1-3-7-13-9-5-8-12-64-1-11h-4l-8-43v-5h3l-1-2-12 1v2l4 1 9 47-5 1 7 36 7 39 1 9-4 8-5 4-5 1-8-4-4-5-1-8 4-8 3-2-1-11-10-54v-2h-3l-5-25-4-22 3-1v-2l-11 2-1 2h4l8 43v5h-4l9 48-1 6-6 7-11 16-1 1 1 11 1 10 5 2 4 5 1 2v6l-6 9-8 2-5-2-5-5-2-3v-7l1-4-5-24 1-8 7-8 11-16-1-9-6-32v-3l-4-1-8-45v-2l3-3-12 3 3 1 3 13 6 32v3l-2 1 2 14 5 28-4 8-16 23-10 14-6 4-19 3-1 4h-2v2l-4 2h-6l-8-5-3-5 1-8 7-8 6-1 6 3 16-3 10-14 15-22-2-13-4-22-5-1-8-43v-5h3v-3l-8 2h-5v2h4l9 46-1 3h-2l2 9-1 8-13 19-6 4-37 7-4 4-1 2h-2v2l-5 2-7-1-8-7-1-9 3-6 6-5h7l4 2 13-2 25-5 9-13v-8l-4 1-2-5-7-39v-5l2-1-20 1-3-15-5 2-42 8h-2l-1-2-4 1-11 16-13 19-2 3h-2l1 7-5 8-4 3h-9l-6-5-2-3v-9l5-7 7-3 10-15 14-20 6-8 5-3 7-1v-5l43-8h5v-4l-1-2-43 8h-6v-4l-28 6-5 4-16 24-9 12-3 2-32 6h-5v2h-2l-2 4-6 3-5-1-6-4-4-6 1-9 3-5 5-3h7l5 3 13-2 21-4 11-16 14-20 3-4 8-3 28-5 1-3 25-5 16-3h7l-4-25-3-11-13 3-32 6-4-1v-3l-87 16-5 2-5 7 1 6-5 8-5 4-9-1-6-5-2-4 1-8 5-7 6-1 1-4 6-9 10-4 87-16h4l1-4 44-8h3v3h2l-3-8-6 2-38 7h-5v-5l-40 7-38 7-5 1-2 5-5 4h-7l-7-4-1-3h-2l-1-9 3-7 5-4 7-1 5 2 9-1 71-13h5v-2l13-3 34-6 1-1-1-6-1 2-44 8h-4v-4l-55 10-7-2-22-15-5-2-25 5-5 5-3 2-9-1-5-4-3-6 1-6 4-6 4-3h8l6 2 25-5h7l8 3 16 11 6 4 10-1 38-7h2l1-4 45-8h2 1l-2-6-13 3-33 6-3-1v-3l-33 6h-9l-11-7-22-15-9-3-5-4-2-5 1-7 5-7 3-1h8l3 1v2l4 2 4 9 27 18 29-5h4v-4l44-8h4v-4l-1-5-1 3-24 5-23 4-1-3-15 3-9-1-17-12-8-6-5-7-6-33-3-1-3-3-2-8 2-6 6-6 7-1 7 3 5 8-1 7-2 4 5 24 1 7 5 2 16 11 14-1-1-4 6-2 38-7 5 1-1-13 6-8 9-2-8-41v-7l3-1-2-12-5-5-16-11h-3l-5 3-7-1-7-5-2-4v-10l1-2h2l2-4 4-2 9 1 11 7 17 12 10 6 4 4 4 19 3 1 8 43 1 3 5 1-8-42v-6l1-1-1-11-7-36-7-4h-9l-7-4-4-5-1-7 4-8 6-4 9 1 5 4 2 3v3l5 2 11 8 2 3 9 49v3h5l5 25 4 21h4l-1-11-6-32v-5l2-2-12-65-4-4-24-16-12-9-9-1-4-2-4-5-1-9 2-6 7-5h7l7 4 3 5 2 5 22 15 19 13 2 4h2l12 64 2 10h4l5 24 4 22 5 1-6-34-2-14 2-1-5-30-15-81-1-4-9-3-6-5-1-7 3-8 6-4z" fill="#DCDDE3"/>
<path transform="translate(578,203)" d="m0 0h6l10 53 20 109 15 81v4l-24 5-218 40h-6l-4-18-13-71-12-65-15-81v-8l4-5 14-3 88-16 53-10z" fill="#E1E8F5"/>
<path transform="translate(1084,161)" d="m0 0h76l26 70 26 69 22 59 39 104 11 29v4h-75l-4-8-22-65v-2h-126l-1 5-18 52-6 17-1 1h-74l3-10 22-58 17-45 41-108 17-45 19-50 7-18z" fill="#817DC0"/>
<path transform="translate(1444,152)" d="m0 0h39l22 4 16 5 16 7 14 8 12 9 10 9 9 11 7 10 10 19 6 19 3 15v5h-71l-6-17-7-12-9-10-13-9-13-6-12-3-9-1h-13l-18 3-13 5-14 9-9 8-9 12-8 16-6 18-3 15-2 21v14l2 21 4 19 6 16 9 16 11 13 14 10 16 7 15 3h26l17-4 15-8 8-7 10-14 7-15 4-14 2-11 1-1h71l-1 12-4 20-6 18-9 19-8 12-9 11-12 12-15 11-15 8-19 7-16 4-25 3h-16l-20-2-20-4-21-7-23-12-12-9-14-12-9-10-12-17-11-21-8-22-5-22-2-14-1-17v-11l2-26 5-25 7-21 11-23 10-15 8-10 12-13 14-11 16-10 20-9 17-5z" fill="#817DC0"/>
<path transform="translate(578,203)" d="m0 0h6l10 53 20 109 15 81v4l-24 5-218 40h-6l-4-18-13-71-12-65-15-81v-8l4-5 14-3 88-16 53-10zm-133 34-19 4-13 5-14 8-13 12-8 9-9 15-5 13-3 15-1 15 3 20 7 17 8 14 12 13 8 7 15 9 14 5 9 2 4 6 11 12 13 10 14 7 17 5 6 1h27l15-4 16-8 11-7 15-15 9-14 6-13 4-15 1-7v-13l-2-16-5-16-8-15-8-10-11-11-18-11-19-7h-4l-2-4-12-13-9-8-16-9-14-5-10-2-16-1z" fill="#FDFDFD"/>
<path transform="translate(445,237)" d="m0 0h12l16 2 16 5 15 8 11 9 9 9 5 6v2h-24l-14 2-15 5-4 1-8-3-6-1h-11l-12 3-12 7-8 8-7 14-2 7v18l5 13 6 9 9 8 13 6 9 2h12l13-4 11-7 10-11 7-4 4-1h8l10 5 5 6 3 9-1 9-6 10-11 11-13 9-8 4-18 6-12 2h-17l-15-2-12-4-14-7-12-9-10-10-7-10-8-16-4-10-3-21 2-20 4-15 8-16 9-12 11-11 10-7 16-8 14-4z" fill="#7DA9DA"/>
<path transform="translate(447,281)" d="m0 0h11l12 3 2 1-1 3-11 6-13 11-7 8-3 5-1 4v10l6 10 6 4 3 1h12l7-4 5-5 10-9 12-6 8-2h15l12 4 12 7 9 9 6 12 2 8v16l-4 12-6 10-10 10-14 7-8 2h-9l-15-3-2-1v-2l15-9 13-12 6-8 3-7-1-11-5-8-8-5-3-1h-8l-8 3-5 4-7 8-10 7-10 4-11 1-11-1-11-4-10-6-7-7-6-10-4-11v-18l4-12 6-10 8-8 12-7z" fill="#FDFDFD"/>
<path transform="translate(1120,244)" d="m0 0 2 1 15 43 19 55 7 20v3h-86l3-11 38-106z" fill="#FDFDFD"/>
<path transform="translate(721,342)" d="m0 0 9 2 18 12 16 11 23 16 12 8 4 3 11-1 9-1 6-6h8l5 2 5 8v6l-6 8-4 2-8-1-3-2-10 1-11 2-8-1-22-15-23-16-24-16-5-4-13 1-32 6h-5v5l-13 3-28 5h-7l-4-22 6-2 38-7h5l1 2z" fill="#827FC0"/>
<path transform="translate(793,173)" d="m0 0 9 1 5 5 2 3v8l-5 7-8 5-15 22-7 6-119 22h-3v5l-43 8h-5l-4-21v-2l42-8h6v2l114-21h5l2-5 8-11 6-8 1-9 4-6z" fill="#827FC0"/>
<path transform="translate(718,374)" d="m0 0 10 3 20 14 38 26 15 10 9 3 5 5 2 4-1 6-4 6-5 3-9-1-6-5-3-7-15-11-24-16-11-8-19-13-1-1-10 1-27 5h-3l-1 4-45 8h-2l-3-13-1-10 7-2 38-7h3v4z" fill="#837FC0"/>
<path transform="translate(336,57)" d="m0 0h7l7 4 3 5 2 5 22 15 19 13 2 4h2l12 64 2 10h4l5 24 4 24-2 1-1 4-8 2-8-1v-2l-5-1-8-42v-5l2-2-12-65-4-4-24-16-12-9-9-1-4-2-4-5-1-9 2-6z" fill="#837FC0"/>
<path transform="translate(402,32)" d="m0 0 8 3 5 6 1 5h2l3 6 21 114 1 6h5l8 44v4h-3l-1 5-7 2-7-1-5-2-3-13-6-32v-3l2-1-5-30-15-81-1-4-9-3-6-5-1-7 3-8 6-4z" fill="#837FC0"/>
<path transform="translate(339,320)" d="m0 0h2l3 13 1 11-44 8h-4v-4l-55 10-7-2-22-15-5-2-25 5-5 5-3 2-9-1-5-4-3-6 1-6 4-6 4-3h8l6 2 25-5h7l8 3 16 11 6 4 10-1 38-7h2l1-4z" fill="#827FC0"/>
<path transform="translate(356,436)" d="m0 0h7l3 17v6l-42 8h-6v-4l-28 6-5 4-16 24-9 12-3 2-32 6h-5v2h-2l-2 4-6 3-5-1-6-4-4-6 1-9 3-5 5-3h7l5 3 13-2 21-4 11-16 14-20 3-4 8-3 28-5 1-3 25-5z" fill="#827EC1"/>
<path transform="translate(746,307)" d="m0 0h8l5 1v3l5 2 14 10 8 4 6 1 6 4 3 5-1 9-4 5-6 3-6-1-7-5-2-4v-5l-4-1-21-14-14 2-64 12h-4v5l-31 6-12 2h-5l-4-20v-3l43-8h5v2z" fill="#837FC0"/>
<path transform="translate(783,264)" d="m0 0h7l7 4 4 7-1 6-4 6-5 3-9-1-4-1-114 21h-2l1 6-24 5-17 3h-7l-3-13-1-9 6-2 38-7h9l108-20h4l2-5z" fill="#837FC0"/>
<path transform="translate(797,239)" d="m0 0h5l1 15-6 2-125 23-11 2h-4l1 5-31 6-11 2h-7l-3-17v-6l42-8h6v2l88-16z" fill="#837FC0"/>
<path transform="translate(499,38)" d="m0 0h7l7 3 4 7-1 8-6 7-5 1-1 4-13 19-2 3 2 14 10 53 2 4h3l5 25 4 23-3 2v3l-6 2h-9l-1-3h-5l-8-42v-6h2l-13-71v-11l8-11 10-14 1-2v-8l4-7z" fill="#837FC0"/>
<path transform="translate(443,493)" d="m0 0h3l3 13 6 32v3l-2 1 2 14 5 28-4 8-16 23-10 14-6 4-19 3-1 4h-2v2l-4 2h-6l-8-5-3-5 1-8 7-8 6-1 6 3 16-3 10-14 15-22-2-13-4-22-5-1-8-43v-5z" fill="#827FC1"/>
<path transform="translate(349,377)" d="m0 0h3l4 23-13 3-32 6-4-1v-3l-87 16-5 2-5 7 1 6-5 8-5 4-9-1-6-5-2-4 1-8 5-7 6-1 1-4 6-9 10-4 87-16h4l1-4z" fill="#837FC0"/>
<path transform="translate(470,488)" d="m0 0h6l8 43v5h-4l9 48-1 6-6 7-11 16-1 1 1 11 1 10 5 2 4 5 1 2v6l-6 9-8 2-5-2-5-5-2-3v-7l1-4-5-24 1-8 7-8 11-16-1-9-6-32v-3l-4-1-8-45v-2l12-3z" fill="#837FC0"/>
<path transform="translate(616,461)" d="m0 0h6l8 42v6l-5 1 2 12 15 11 10 6 49-9 4-2 5-4h8l3 1v2l4 2 3 6-1 6-7 8-2 1-9-1-5-3-24 5-25 5-4 1-9-4-20-14-6-3-5-8-2-10v-5h-2l-5-25-4-23z" fill="#837FC0"/>
<path transform="translate(446,51)" d="m0 0h7l4 1v2l4 2 3 6-1 6-5 7-2 2 15 82 1 8 4-1 2 5 7 38v6h-3v4l-9 3-5-1-2-2-4-1-5-25-4-22 3-1-13-69-6-35 1-6 4-7z" fill="#837FC0"/>
<path transform="translate(590,466)" d="m0 0 3 1 8 42v5l-4 1 7 36 4 7 12 8 22 15 3 1 9 1 5 4 3 5v8l-6 8-4 2-7-1-6-4-1-3h-2v-7l-5-1-11-8-22-15-6-5-4-7-7-38v-3l-4-1-8-46 9-3z" fill="#837FC0"/>
<path transform="translate(529,477)" d="m0 0h5l9 46v2l-4 2 13 71 10 7 9 2 6 4 4 7-3 9-6 5-6 1-6-2v-2l-3-1-3-7-13-9-5-8-12-64-1-11h-4l-8-43v-5z" fill="#837FC0"/>
<path transform="translate(711,142)" d="m0 0 8 1 6 5 2 3v7l-4 7-9 6-16 23-10 15-3 5-5 3-32 6-1 5-44 8h-4l-3-12-1-11 25-5 23-4v3l30-6 8-11 15-22 5-8v-7l4-8z" fill="#827EC1"/>
<path transform="translate(345,349)" d="m0 0 2 1 4 22-6 2-38 7h-5v-5l-40 7-38 7-5 1-2 5-5 4h-7l-7-4-1-3h-2l-1-9 3-7 5-4 7-1 5 2 9-1 71-13h5v-2l13-3z" fill="#837FC0"/>
<path transform="translate(229,210)" d="m0 0 8 1 5 5 3 5-1 7-2 4 5 24 1 7 5 2 16 11 14-1-1-4 6-2 38-7 5 1 3 16v6l-24 5-23 4-1-3-15 3-9-1-17-12-8-6-5-7-6-33-3-1-3-3-2-8 2-6 6-6z" fill="#827FC1"/>
<path transform="translate(410,499)" d="m0 0h7l5 25 4 22-3 1 2 9-1 8-13 19-6 4-37 7-4 4-1 2h-2v2l-5 2-7-1-8-7-1-9 3-6 6-5h7l4 2 13-2 25-5 9-13v-8l-4 1-2-5-7-39v-5z" fill="#837FC0"/>
<path transform="translate(209,276)" d="m0 0h8l3 1v2l4 2 4 9 27 18 29-5h4v-4l44-8h4l4 20v3l-13 3-33 6-3-1v-3l-33 6h-9l-11-7-22-15-9-3-5-4-2-5 1-7 5-7z" fill="#827FC1"/>
<path transform="translate(355,406)" d="m0 0 2 1 3 12 1 11-44 8h-4v-4l-54 10h-2l-2 5-4 5-3 10-5 5-3 2h-6l-5-2v-2l-3-1v-2h-2l-1-7 4-8 5-4 5-1 8-12 8-4 54-10h2v-3l13-3z" fill="#827FC0"/>
<path transform="translate(341,107)" d="m0 0 9 1 5 4 2 3v3l5 2 11 8 2 3 9 49v3h5l5 25 4 22-3 1-1 5-8 2h-6l-2-3-4-1-8-41v-6l1-1-1-11-7-36-7-4h-9l-7-4-4-5-1-7 4-8z" fill="#837FC0"/>
<path transform="translate(503,482)" d="m0 0 2 1 9 47-5 1 7 36 7 39 1 9-4 8-5 4-5 1-8-4-4-5-1-8 4-8 3-2-1-11-10-54v-2h-3l-5-25-4-22 5-2z" fill="#837FC0"/>
<path transform="translate(531,75)" d="m0 0 8 1 6 4 3 6-1 9-5 6-8 4-9 13 1 11 5 26 5 2 8 44v3h-3l-1 5-7 2h-8v-3l-5-1-8-42v-5l2-2-7-38 1-9 13-19 1-8 5-7z" fill="#837FC1"/>
<path transform="translate(363,465)" d="m0 0h5l4 21v2l-46 9h-2l-1-2-4 1-11 16-13 19-2 3h-2l1 7-5 8-4 3h-9l-6-5-2-3v-9l5-7 7-3 10-15 14-20 6-8 5-3 7-1v-5z" fill="#827EC1"/>
<path transform="translate(302,138)" d="m0 0 9 1 11 7 17 12 10 6 4 4 4 19 3 1 8 43v5l-2 1-1 4-11 3-4-1-1-2-4-1-8-41v-7l3-1-2-12-5-5-16-11h-3l-5 3-7-1-7-5-2-4v-10l1-2h2l2-4z" fill="#837FC1"/>
<path transform="translate(678,407)" d="m0 0 3 1 3 13 27 18 9 4 4 5 1 7-5 9-4 2h-9l-6-5v-2h-2v-8l-5-2-22-15-10 1-22 4h-4l-4-21v-2l24-5z" fill="#827FC1"/>
<path transform="translate(557,472)" d="m0 0h7l8 44-1 4-3 2 5 25 2 1v2h2l4 8-2 7-4 5-3 2-8 1-8-4-3-5v-8l3-5-2-13-2-10v-4l-4-1-8-43 1-5z" fill="#837FC0"/>
<path transform="translate(549,113)" d="m0 0 8 3 5 6 1 6-4 8-2 3 2 5 1 7 4-1 2 7 7 38v4h-3v4l-4 2-8 1-2-3-6-1-3-12-6-33 1-3h2l-4-18-3-4-1-6 4-8 5-4z" fill="#827FC1"/>
<path transform="translate(549,200)" d="m0 0 1 2h7l1 3h8v1l-76 14-47 9-77 14-5 1h-7v-1l11-2 1-5h2l1-2h9l2 3 14-1 1-5 9-3 4 1v2h8l8-1 1-5 7-1 1-2v2l5 1 7 1 7-2 1-4 8-2h5l4 3 12-2v-4h3l1-3v2l3-1h7l1 2h9l6-1-1-4 9-3 5 1v3l12-2 3-1 1-4 7-2z" fill="#E0E1E6"/>
<path transform="translate(529,171)" d="m0 0h6l5 24 1 7 2 1 1-2v3h-3l-1 5-7 2h-8v-3l-4-1h2l-5-27v-7z" fill="#AEADBB"/>
<path transform="translate(354,203)" d="m0 0h5l3 11 4 23-1 4-11 3-4-1-1-2-4-2h3l-4-18-2-15 7-2z" fill="#AEADBB"/>
<path transform="translate(501,176)" d="m0 0h5l6 32v6l-6 2h-9l-1-3-3-1-2-14-2-11v-8l7-2z" fill="#AEADBB"/>
<path transform="translate(386,197)" d="m0 0h2l3 12 3 15v6l3 1h-2l-1 5-8 2h-6l-4-7-5-30 6-2z" fill="#AEADBB"/>
<path transform="translate(473,181)" d="m0 0h3l5 22 1 11 3 1h-3v4l-9 3-5-1-3-3-5-25-1-9z" fill="#AEADBB"/>
<path transform="translate(560,165)" d="m0 0h4l6 28v5l3 1h-3v4l-4 2-8 1-2-3-4-2-5-28v-5z" fill="#AEADBB"/>
<path transform="translate(441,187)" d="m0 0h6l6 28v9l-8 3-7-1-5-2 3-1-2-5-4-24 1-5z" fill="#AEADBB"/>
<path transform="translate(414,192)" d="m0 0h4l6 31 1 3-1 4-8 2-8-1v-2l-2-1-5-26v-7z" fill="#AEADBB"/>
<path transform="translate(410,499)" d="m0 0h4l2 8 4 22v4l-14 3h-3l-3-12-3-16v-5l-3-1z" fill="#AEADBB"/>
<path transform="translate(616,461)" d="m0 0 4 1 3 20 2 13-12 3h-5l-2-5-5-29z" fill="#AEADBB"/>
<path transform="translate(497,483)" d="m0 0h5l4 20 2 13-5 2-12 2-2-6-4-20v-7l-3-1z" fill="#AEADBB"/>
<path transform="translate(557,472)" d="m0 0h4l5 29v5l-13 3h-4l-5-24-1-9-2-1z" fill="#AEADBB"/>
<path transform="translate(437,494)" d="m0 0h6l2 5 4 24v5l-11 2h-6l-3-12-3-16v-6z" fill="#AEADBB"/>
<path transform="translate(470,488)" d="m0 0h3l5 28v6l-12 3h-5l-6-30-1-4z" fill="#AEADBB"/>
<path transform="translate(529,477)" d="m0 0 3 1 4 24 1 9-7 2-10 1-3-11-3-16v-7z" fill="#AEADBB"/>
<path transform="translate(584,467)" d="m0 0h5l2 5 4 22v7l-16 3-2-5-5-26 1-4z" fill="#AEADBB"/>
<path transform="translate(651,355)" d="m0 0h5l3 13-1 4-30 6h-2l-1 2-3-16v-4z" fill="#AEADBB"/>
<path transform="translate(641,298)" d="m0 0h5l2 11v6l-24 5-10 1-2-11v-6l6-2z" fill="#AEADBB"/>
<path transform="translate(634,269)" d="m0 0h6l3 13-1 4-30 6h-2l-1 2-3-17v-3z" fill="#AEADBB"/>
<path transform="translate(626,210)" d="m0 0 4 1 2 11v5l-18 4-16 3-3-18 8-2z" fill="#AEADBB"/>
<path transform="translate(330,263)" d="m0 0h1l3 16v3l-24 5-10 1-1-1-2-16 24-5 9-1z" fill="#AEADBB"/>
<path transform="translate(664,413)" d="m0 0 3 1 3 13v3l-24 5-10 2-2-7-1-11 8-2z" fill="#AEADBB"/>
<path transform="translate(346,350)" d="m0 0h1l3 16v4l-31 6h-3l-3-17 13-3 15-3h5z" fill="#AEADBB"/>
<path transform="translate(649,325)" d="m0 0 2 1 2 10v6l-16 4-17 3-2-6-1-12 21-4z" fill="#AEADBB"/>
<path transform="translate(657,384)" d="m0 0 5 1 2 11v5l-30 6h-4l-3-18z" fill="#AEADBB"/>
<path transform="translate(364,468)" d="m0 0 5 1 2 10v6l-24 5-10 1-2-11v-6l24-5z" fill="#AEADBB"/>
<path transform="translate(362,436)" d="m0 0h1l3 17v3l-32 6h-2l-3-14v-3l28-6h5z" fill="#AEADBB"/>
<path transform="translate(628,240)" d="m0 0h7l3 16-17 4-17 3-2-7-1-11z" fill="#AEADBB"/>
<path transform="translate(349,380)" d="m0 0h3l3 13-1 5-28 5h-5l-3-16 5-2z" fill="#AEADBB"/>
<path transform="translate(341,322)" d="m0 0h1l3 19-28 5h-7l-2-16 6-2 25-5z" fill="#AEADBB"/>
<path transform="translate(333,294)" d="m0 0 4 1 2 11v5l-12 3-17 3h-5l-3-16 5-2z" fill="#AEADBB"/>
<path transform="translate(351,410)" d="m0 0h7l2 9v7l-5 2-22 4h-7l-2-16 6-2z" fill="#AEADBB"/>
<path transform="translate(531,75)" d="m0 0 8 1 6 4 3 6-1 9-5 6-3 2h-7l-9-6-2-10 4-8z" fill="#4EC67E"/>
<path transform="translate(204,372)" d="m0 0 8 1 7 6 2 5-1 7-5 7-3 2h-7l-7-4-1-3h-2l-1-9 3-7 5-4z" fill="#4EC57E"/>
<path transform="translate(645,582)" d="m0 0 9 1 5 4 3 5v8l-6 8-4 2-7-1-6-4-1-3h-2l-1-8 4-8z" fill="#4EC57E"/>
<path transform="translate(349,576)" d="m0 0h7l7 4 3 5 1 6-3 7-1 2h-2v2l-5 2-7-1-8-7-1-9 3-6z" fill="#4EC57E"/>
<path transform="translate(564,546)" d="m0 0 9 1 2 1v2h2l4 8-2 7-4 5-3 2-8 1-8-4-3-5v-8l4-6 4-3z" fill="#4EC57E"/>
<path transform="translate(302,138)" d="m0 0 9 1 6 4 2 5-1 9-4 6-5 3-7-1-7-5-2-4v-10l1-2h2l2-4z" fill="#4FC57E"/>
<path transform="translate(508,599)" d="m0 0 6 1 6 4 3 3 1 8-4 8-5 4-5 1-8-4-4-5-1-8 4-8z" fill="#4EC57E"/>
<path transform="translate(341,107)" d="m0 0 9 1 5 4 3 6-1 8-6 8-8 1-7-4-4-5-1-7 4-8z" fill="#4EC57E"/>
<path transform="translate(336,57)" d="m0 0h7l7 4 3 5 1 7-5 8-3 3-7 1-7-3-4-5-1-9 2-6z" fill="#4EC57E"/>
<path transform="translate(204,498)" d="m0 0h7l7 4 3 4 1 6-2 7h-2l-2 4-6 3-5-1-6-4-4-6 1-9 3-5z" fill="#4EC57E"/>
<path transform="translate(707,440)" d="m0 0h7l7 4 4 6-1 8-4 6-4 2h-9l-6-5v-2h-2v-10l5-7z" fill="#4FC57E"/>
<path transform="translate(793,173)" d="m0 0 9 1 5 5 2 3v8l-5 7-6 3-6-1-8-6-1-8 4-8z" fill="#4EC57E"/>
<path transform="translate(711,142)" d="m0 0 8 1 6 5 2 3v7l-4 7-7 4-6-1-8-6-1-9 4-8z" fill="#4EC57E"/>
<path transform="translate(499,38)" d="m0 0h7l7 3 4 7-1 8-6 7-6 2-10-5-3-4v-8l4-7z" fill="#4EC57E"/>
<path transform="translate(232,445)" d="m0 0h8l6 4 4 5-1 8-4 6-5 3h-6l-5-2v-2l-3-1v-2h-2l-1-7 4-8z" fill="#4EC57E"/>
<path transform="translate(783,264)" d="m0 0h7l7 4 4 7-1 6-4 6-5 3-9-1-6-5-2-4 1-7 4-7z" fill="#4EC57E"/>
<path transform="translate(549,113)" d="m0 0 8 3 5 6 1 6-4 8-5 4-9-1-6-4-3-7 3-9 6-5z" fill="#4EC67E"/>
<path transform="translate(446,51)" d="m0 0h7l4 1v2l4 2 3 6-1 6-5 7-3 2-9-1-6-4-2-2-1-7 5-10z" fill="#4EC57E"/>
<path transform="translate(193,422)" d="m0 0h8l6 4 3 4 1 6-5 8-5 4-9-1-6-5-2-4 1-8 5-7z" fill="#4EC57E"/>
<path transform="translate(275,526)" d="m0 0 9 1 7 6 1 8-5 8-4 3h-9l-6-5-2-3v-9l5-7z" fill="#4EC57E"/>
<path transform="translate(209,276)" d="m0 0h8l3 1v2l4 2 3 7-2 6-6 7-2 1-9-1-6-5-2-5 1-7 5-7z" fill="#4EC57E"/>
<path transform="translate(710,524)" d="m0 0h8l3 1v2l4 2 3 6-1 6-7 8-2 1-9-1-6-5-2-4 1-8 6-7z" fill="#4EC57E"/>
<path transform="translate(786,327)" d="m0 0 6 1 6 4 3 5-1 9-4 5-6 3-6-1-7-5-2-4 1-9 5-6z" fill="#4EC57E"/>
<path transform="translate(229,210)" d="m0 0 8 1 5 5 3 5-1 7-3 5-5 3h-9l-4-2-3-3-2-8 2-6 6-6z" fill="#4FC57E"/>
<path transform="translate(466,634)" d="m0 0h6l8 6 2 4v6l-6 9-8 2-5-2-5-5-2-3v-7l4-6z" fill="#4EC57E"/>
<path transform="translate(394,617)" d="m0 0 7 3 5 5 1 2v7l-3 6h-2v2l-4 2h-6l-8-5-3-5 1-8 7-8z" fill="#4EC57E"/>
<path transform="translate(799,428)" d="m0 0 10 1 5 4 3 6-1 6-4 6-5 3-9-1-6-5-2-9 3-6z" fill="#4EC57E"/>
<path transform="translate(829,386)" d="m0 0h8l5 2 5 8v6l-6 8-4 2-8-1-6-4-2-4v-7l4-7z" fill="#4EC57E"/>
<path transform="translate(167,325)" d="m0 0h8l6 4 3 4v9l-4 6-5 3-9-1-5-4-3-6 1-6 4-6z" fill="#4EC67E"/>
<path transform="translate(402,32)" d="m0 0 8 3 5 6 1 6-4 8-6 4-8-1-8-6-1-7 3-8 6-4z" fill="#4EC57E"/>
<path transform="translate(566,606)" d="m0 0 9 3 5 6 1 5-4 8-5 4-6 1-6-2v-2l-3-1-3-7 1-6 7-8z" fill="#4EC57E"/>
<path transform="translate(650,254)" d="m0 0h2v3l-43 8h-5l1-3 30-6 13-1z" fill="#7F7BC8"/>
<path transform="translate(677,398)" d="m0 0 2 3-7 2-39 7h-2v-3l24-5 18-2z" fill="#7C79C9"/>
<path transform="translate(666,340)" d="m0 0h2v3l-31 6-12 2h-5l1-3 26-5 18-2z" fill="#7E7BC8"/>
<path transform="translate(354,397)" d="m0 0 2 1v2l-13 3-26 5h-7l1-2 15-4z" fill="#7E7BC8"/>
<path transform="translate(349,377)" d="m0 0h3v3l-24 5-18 1v-2z" fill="#7E7BC8"/>
<path transform="translate(363,465)" d="m0 0h5v3l-25 5-11 1-3-2 6-2z" fill="#7E7BC7"/>
<path transform="translate(332,291)" d="m0 0h4v3l-24 5-14 1 1-3z" fill="#807DC6"/>
<path transform="translate(359,426)" d="m0 0h2v4l-32 6h-11v-1l21-5z" fill="#7E7AC8"/>
<path transform="translate(644,285)" d="m0 0h9l-4 3-33 6h-6v-2l12-3z" fill="#807DC7"/>
<path transform="translate(345,349)" d="m0 0 1 4-20 4-19 1v-2z" fill="#7F7CC7"/>
<path transform="translate(326,262)" d="m0 0h4v3l-30 6h-8l1-3z" fill="#7E7BC8"/>
<path transform="translate(356,436)" d="m0 0h6v3l-25 5h-13l4-2 6-2z" fill="#7D7AC8"/>
<path transform="translate(638,295)" d="m0 0h10l-3 2-4 2-30 5 1-4z" fill="#7D7AC8"/>
<path transform="translate(662,410)" d="m0 0h8l-3 2h-3v2l-31 5-1-3 24-5z" fill="#7D7AC8"/>
<path transform="translate(655,381)" d="m0 0h8l-2 2-9 3-24 4v-4z" fill="#7C79C9"/>
<path transform="translate(337,311)" d="m0 0h3v3l-13 3-16 3h-8l1-2 12-3z" fill="#7F7CC8"/>
<path transform="translate(648,352)" d="m0 0h10l-2 2h-5v2l-24 4h-5v-3z" fill="#7D7AC8"/>
<path transform="translate(660,371)" d="m0 0 3 1-3 3-28 5h-6v-2l13-3z" fill="#7C79CA"/>
<path transform="translate(394,503)" d="m0 0h3l6 34-2 4-2-6-5-28z" fill="#807CC6"/>
<path transform="translate(540,476)" d="m0 0h3l5 25v11h-2l-6-32z" fill="#807DC6"/>
<path transform="translate(642,323)" d="m0 0h8l-1 3-29 5h-4v-3z" fill="#817EC5"/>
<path transform="translate(632,266)" d="m0 0h9l-1 2-12 3-17 3h-5v-3z" fill="#7C79C8"/>
<path transform="translate(419,190)" d="m0 0h2l6 33v2h-3l-3-12-3-16z" fill="#827FC5"/>
<path transform="translate(561,472)" d="m0 0h3l5 29v9l-2-3v-6h-2l-4-23z" fill="#807DC7"/>
<path transform="translate(343,340)" d="m0 0 2 1v3l-28 5h-7l1-2 12-3z" fill="#7E7BC8"/>
<path transform="translate(645,315)" d="m0 0h9l-1 2-25 5-13 1v-2l25-5z" fill="#7C79C9"/>
<path transform="translate(629,227)" d="m0 0 4 1-2 3-28 5h-4v-3z" fill="#7D7AC8"/>
<path transform="translate(620,461)" d="m0 0h2l6 32v8l-2-3-4-16-3-20z" fill="#7E7BC8"/>
<path transform="translate(625,237)" d="m0 0h8v2l-5 2-23 4-5-1v-2z" fill="#7D7AC9"/>
<path transform="translate(598,465)" d="m0 0 4 1 4 22 1 12-3-1-6-32z" fill="#807DC7"/>
<path transform="translate(452,492)" d="m0 0h3l5 24v12l-2-1-6-33z" fill="#7E7BC7"/>
<path transform="translate(481,487)" d="m0 0h4l5 27-1 7h-2z" fill="#807DC6"/>
<path transform="translate(667,430)" d="m0 0h4v2l-9 3-22 4h-4l1-3z" fill="#7F7CC8"/>
<path transform="translate(369,200)" d="m0 0 1 2h2l5 29-1 4-2-1-5-26z" fill="#7E7BC7"/>
<path transform="translate(565,162)" d="m0 0h2l6 33v3h-3l-5-25z" fill="#7F7CC7"/>
<path transform="translate(330,282)" d="m0 0h4v3l-24 5h-8l1-3z" fill="#7E7BC8"/>
<path transform="translate(390,197)" d="m0 0h2l6 33h-4l-4-21z" fill="#827FC5"/>
<path transform="translate(414,499)" d="m0 0h3l5 25v10l-2-4-2-6z" fill="#7D7AC8"/>
<path transform="translate(346,370)" d="m0 0h5l-1 3-26 5h-7l2-3z" fill="#7C7AC9"/>
<path transform="translate(620,208)" d="m0 0h7l-1 3-31 5v-3z" fill="#817EC6"/>
<path transform="translate(511,481)" d="m0 0h3l4 22v11h-2l-5-28z" fill="#7F7CC7"/>
<path transform="translate(503,482)" d="m0 0 2 1 5 26v9l-2-4-2-5-4-23z" fill="#7F7CC7"/>
<path transform="translate(423,497)" d="m0 0h3l4 21v11h-2l-5-27z" fill="#827FC5"/>
<path transform="translate(355,406)" d="m0 0 2 1v3l-16 3-14 1 1-3z" fill="#807CC7"/>
<path transform="translate(368,485)" d="m0 0 4 1v2l-26 5h-6l2-3z" fill="#807DC8"/>
<path transform="translate(516,177)" d="m0 0 1 3h2l4 22v5h-3l-4-22z" fill="#807CC6"/>
<path transform="translate(340,206)" d="m0 0 2 4v5h2l4 21v3h-3l-5-24z" fill="#807DC7"/>
<path transform="translate(362,456)" d="m0 0h4v3l-20 4h-8l2-3z" fill="#7C78C9"/>
<path transform="translate(399,198)" d="m0 0 1 4h2l5 26h-4l-4-21z" fill="#807CC5"/>
<path transform="translate(339,320)" d="m0 0h2v3l-12 3-5 1h-9l2-3z" fill="#807DC7"/>
<path transform="translate(532,477)" d="m0 0h2l4 20v9l-3-4-4-24z" fill="#7F7CC7"/>
<path transform="translate(590,466)" d="m0 0 3 1 3 16v10l-2 1-5-27z" fill="#7D7AC7"/>
<path transform="translate(458,190)" d="m0 0 1 3h2l4 22v3h-3l-4-19z" fill="#817EC5"/>
<path transform="translate(449,189)" d="m0 0 2 2 5 25v4h-3l-3-15z" fill="#817EC6"/>
<path transform="translate(443,493)" d="m0 0h3l3 13 1 5v10l-3-4z" fill="#817EC6"/>
<path transform="translate(507,181)" d="m0 0 1 4 3 1 4 23-4-1-4-21z" fill="#8380C6"/>
<path transform="translate(473,488)" d="m0 0h3l3 17v9l-1-3h-2l-3-18z" fill="#7E7BC7"/>
<path transform="translate(478,188)" d="m0 0 1 4 3 1 3 16v5h-3l-4-21z" fill="#7F7CC6"/>
<path transform="translate(488,188)" d="m0 0 1 4h2l3 17-1 4h-2l-3-15z" fill="#7E7BC7"/>
<path transform="translate(548,179)" d="m0 0h1l4 22-3 1-3-12z" fill="#7E7BC6"/>
<path transform="translate(565,555)" d="m0 0 5 2-1 6-5 1-3-3 1-4z" fill="#F3F4F5"/>
<path transform="translate(276,535)" d="m0 0 6 1 1 5-5 3-4-3 1-5z" fill="#F3F3F5"/>
<path transform="translate(234,454)" d="m0 0h5l2 2-1 5-1 1h-5l-2-3v-3h2z" fill="#F0F1F3"/>
<path transform="translate(205,383)" d="m0 0h5l2 5-2 3h-5l-2-2 1-5z" fill="#F3F4F5"/>
<path transform="translate(712,533)" d="m0 0 6 1 1 4-2 3h-5l-2-2 1-5z" fill="#F3F3F5"/>
<path transform="translate(832,395)" d="m0 0 5 1 1 5-2 2h-5l-2-5z" fill="#EEEFF2"/>
<path transform="translate(666,340)" d="m0 0h2v3l-20 4h-3l2-4 18-2z" fill="#7F7CC8"/>
<path transform="translate(169,334)" d="m0 0h5l2 5-3 3-5-1-1-5z" fill="#F2F3F5"/>
<path transform="translate(230,219)" d="m0 0 4 1 2 2-1 4-2 2-4-1-2-2 1-4z" fill="#F3F3F5"/>
<path transform="translate(547,123)" d="m0 0h5l2 2-1 5-5 1-3-3 1-4z" fill="#EFF0F3"/>
<path transform="translate(344,117)" d="m0 0 5 2v5l-3 2-4-1-2-4z" fill="#F3F3F5"/>
<path transform="translate(448,60)" d="m0 0h5l2 5-2 3h-5l-2-2 1-5z" fill="#F3F3F5"/>
<path transform="translate(400,42)" d="m0 0h5l2 2-1 5-6 1-2-3 1-4z" fill="#EFF0F3"/>
<path transform="translate(565,616)" d="m0 0h5l2 5-3 3-5-1-1-5z" fill="#F3F3F5"/>
<path transform="translate(509,608)" d="m0 0 4 1 2 4-3 4-5-1-1-5z" fill="#F3F4F5"/>
<path transform="translate(646,593)" d="m0 0h6l1 1v5l-2 2-5-1-1-1v-5z" fill="#F4F5F6"/>
<path transform="translate(352,586)" d="m0 0 5 2 1 4-3 3-5-1-1-5z" fill="#F4F4F6"/>
<path transform="translate(787,336)" d="m0 0 5 2v5l-3 2h-3v-2h-2v-5z" fill="#F3F3F5"/>
<path transform="translate(211,285)" d="m0 0 6 1 1 4-3 3-5-1-1-5z" fill="#F2F2F4"/>
<path transform="translate(430,202)" d="m0 0 3 4 3 17-4-1-2-11z" fill="#7E7BC7"/>
<path transform="translate(795,182)" d="m0 0 5 2v5l-5 2-3-2v-5z" fill="#F4F4F6"/>
<path transform="translate(532,86)" d="m0 0h5l2 2-1 5-5 1-3-3z" fill="#F2F3F5"/>
<path transform="translate(501,47)" d="m0 0h5v2h2l-1 5-5 1-3-3z" fill="#F0F2F4"/>
<path transform="translate(467,643)" d="m0 0 5 1 1 5-3 3-4-1-2-4z" fill="#F3F4F5"/>
<path transform="translate(341,469)" d="m0 0h8l-1 3-16 2-3-2 6-2z" fill="#7E7BC8"/>
<path transform="translate(801,437)" d="m0 0 5 1 2 4-4 4-5-3 1-5z" fill="#F4F4F6"/>
<path transform="translate(712,151)" d="m0 0 5 1 1 1v5l-5 2-3-3v-4h2z" fill="#F4F4F6"/>
<path transform="translate(710,449)" d="m0 0 4 1 2 1-1 5-1 1h-5l-2-4z" fill="#F4F4F6"/>
<path transform="translate(333,431)" d="m0 0h8v2l-12 3h-11v-1z" fill="#7C79C9"/>
<path transform="translate(195,431)" d="m0 0 5 1 2 4-3 3h-4v-2h-2l1-5z" fill="#F1F1F3"/>
<path transform="translate(538,184)" d="m0 0 3 1 2 11v7l-3-1-2-12z" fill="#7F7CC7"/>
<path transform="translate(205,507)" d="m0 0h5l2 2-1 5-5 1-2-2z" fill="#F4F5F6"/>
<path transform="translate(570,470)" d="m0 0h2l2 9 1 13h-2l-4-21z" fill="#7E7BC7"/>
<path transform="translate(303,149)" d="m0 0h6l1 1v5l-3 2h-3l-2-3z" fill="#F4F5F6"/>
<path transform="translate(1383,483)" d="m0 0 23 9 5 2v1l-8-1-16-7-4-2z" fill="#7D7AC9"/>
<path transform="translate(639,384)" d="m0 0 4 1 3 2-18 3v-4z" fill="#7E7AC7"/>
<path transform="translate(392,627)" d="m0 0 5 1 1 5-2 2h-4v-2h-2l1-5z" fill="#F4F4F6"/>
<path transform="translate(626,326)" d="m0 0h8v2l-8 2-10 1v-3z" fill="#7C79C9"/>
<path transform="translate(338,66)" d="m0 0 5 1 1 5-3 2-4-1-1-5z" fill="#F3F3F5"/>
<path transform="translate(786,273)" d="m0 0 4 1 2 4-2 3h-5l-1-1v-5z" fill="#F2F2F4"/>
<path transform="translate(363,219)" d="m0 0 3 1 2 11v5h-3l-2-10z" fill="#817EC6"/>
<path transform="translate(598,465)" d="m0 0 4 1 2 11-1 4-2 1z" fill="#817EC6"/>
<path transform="translate(326,262)" d="m0 0h4v3l-9 2h-8l2-3z" fill="#7C79C9"/>
<path transform="translate(625,391)" d="m0 0h3l2 16-3 1-2-11z" fill="#E0E3EA"/>
<path transform="translate(603,275)" d="m0 0h3l2 8 1 9h-3z" fill="#E0E2E9"/>
<path transform="translate(369,200)" d="m0 0 1 2h2l2 16-3 1-2-11z" fill="#807DC5"/>
<path transform="translate(632,355)" d="m0 0 4 1 3 2-12 2h-5v-3z" fill="#7F7BC7"/>
<path transform="translate(322,382)" d="m0 0h7l-1 3-18 1v-2z" fill="#7D7BC9"/>
<path transform="translate(632,418)" d="m0 0h1l3 19-3-3-3-10v-4h2z" fill="#E0E3EB"/>
<path transform="translate(324,403)" d="m0 0h5v2l-12 3h-7l1-2z" fill="#7D7ACA"/>
<path transform="translate(660,371)" d="m0 0 3 1-3 3-5 1h-8l2-3z" fill="#7B78CA"/>
<path transform="translate(355,406)" d="m0 0 2 1v3l-6 1h-8l1-3z" fill="#7D7AC8"/>
<path transform="translate(346,370)" d="m0 0h5l-1 3-13 2v-2l-2-1z" fill="#807EC8"/>
<path transform="translate(638,295)" d="m0 0h10l-3 2-4 2h-10l2-3z" fill="#7B78CA"/>
<path transform="translate(615,260)" d="m0 0 3 1 3 2-12 2h-5l1-3z" fill="#807DC8"/>
<path transform="translate(626,258)" d="m0 0h7l-1 3-6 1h-9l1-2z" fill="#7B78CA"/>
<path transform="translate(644,285)" d="m0 0h9l-4 3-5 1h-8l2-3z" fill="#7B78CA"/>
<path transform="translate(620,208)" d="m0 0h7l-1 3-6 1h-8l2-3z" fill="#7B78C9"/>
<path transform="translate(574,484)" d="m0 0h1l2 16v6h-2l-2-14h2l-1-2z" fill="#827FC6"/>
<path transform="translate(632,266)" d="m0 0h9l-1 2-6 2h-9l2-3z" fill="#7976CB"/>
<path transform="translate(620,461)" d="m0 0h2l2 14-3 1-2-14z" fill="#807DC6"/>
<path transform="translate(305,296)" d="m0 0h8l-1 3-14 1 1-3z" fill="#7B78CA"/>
<path transform="translate(315,294)" d="m0 0h9l-1 3-10 1v-2l-3-1z" fill="#7E7BC7"/>
<path transform="translate(488,280)" d="m0 0 4 1-3 2-14 4-3-1 12-5z" fill="#E0E1E7"/>
<path transform="translate(414,499)" d="m0 0h3l2 8v4h-2l-1 2z" fill="#807CC6"/>
<path transform="translate(356,436)" d="m0 0h6v3l-5 1h-8l2-3z" fill="#7C79C9"/>
<path transform="translate(592,216)" d="m0 0h3l2 8v5h-3z" fill="#E0E3EB"/>
<path transform="translate(345,438)" d="m0 0h5l2 3-5 1h-9l2-3z" fill="#7E7BC7"/>
<path transform="translate(677,398)" d="m0 0 2 3-7 2-9 1 1-3 12-2z" fill="#7F7CC8"/>
<path transform="translate(617,290)" d="m0 0h7v2l-8 2h-6v-2z" fill="#7B78CA"/>
<path transform="translate(393,218)" d="m0 0 3 1 2 11h-4z" fill="#807DC6"/>
<path transform="translate(347,489)" d="m0 0h7v2l-8 2h-6l2-3z" fill="#7A77C9"/>
<path transform="translate(616,331)" d="m0 0h1l1 6v9l-1-4h-2l-1-10z" fill="#E1E5EE"/>
<path transform="translate(507,181)" d="m0 0 1 4 3 1v10l-2 2-2-11z" fill="#7D7AC6"/>
<path transform="translate(428,512)" d="m0 0h1l1 6v11h-2l-1-12z" fill="#7F7CC7"/>
<path transform="translate(639,405)" d="m0 0 3 1 3 2-14 2v-3z" fill="#817EC7"/>
<path transform="translate(621,364)" d="m0 0h2l2 14h-3l-1-3z" fill="#E1E5EE"/>
<path transform="translate(611,304)" d="m0 0h1l1 6v9l-1-4h-2l-1-10z" fill="#E0E3EB"/>
<path transform="translate(617,299)" d="m0 0 4 1 3 2-13 2 1-4z" fill="#817DC6"/>
<path transform="translate(310,286)" d="m0 0 4 1 1 2-5 1h-8l1-3z" fill="#7E7BC8"/>
<path transform="translate(641,204)" d="m0 0h2l-1 3-9 2h-5l2-3z" fill="#7F7CC9"/>
<path transform="translate(428,191)" d="m0 0 1 3h2l1 11-3 1-1-6z" fill="#817EC5"/>
<path transform="translate(477,499)" d="m0 0h1l1 6v9l-1-3h-2l-1-11z" fill="#807DC5"/>
<path transform="translate(452,492)" d="m0 0h3l2 8-1 4-2 1z" fill="#8481C4"/>
<path transform="translate(346,459)" d="m0 0 4 1 1 2-5 1h-8l2-3z" fill="#7E7BC8"/>
<path transform="translate(565,162)" d="m0 0h2l1 6v9l-3-4z" fill="#7E7BC8"/>
<path transform="translate(399,528)" d="m0 0h2l2 10-2 3-2-6z" fill="#7D7AC9"/>
<path transform="translate(590,466)" d="m0 0 3 1 1 9-3 1-2-10z" fill="#8481C5"/>
<path transform="translate(343,340)" d="m0 0 2 1v3l-10 1 1-3z" fill="#7F7CC7"/>
<path transform="translate(511,481)" d="m0 0h3l1 10-3 1z" fill="#807DC5"/>
<path transform="translate(561,472)" d="m0 0h3v11l-2 2z" fill="#7F7CC6"/>
<path transform="translate(643,344)" d="m0 0 3 1-3 3h-9l3-3z" fill="#7A77CA"/>
<path transform="translate(424,212)" d="m0 0h1l2 13h-3l-1-2v-7z" fill="#8583C5"/>
<path transform="translate(399,198)" d="m0 0 1 4h2v11l-2-1-1-5z" fill="#7C79C9"/>
<path transform="translate(570,184)" d="m0 0h1l2 14h-3l-1-10z" fill="#817EC7"/>
<path transform="translate(332,380)" d="m0 0h5l2 3-10 1v-2l-2-1z" fill="#817EC5"/>
<path transform="translate(330,282)" d="m0 0h4v3l-3 1h-7l1-3z" fill="#7A77C9"/>
<path transform="translate(600,244)" d="m0 0h1l1 6v9l-2-4-2-5v-4h2z" fill="#E1E5EE"/>
<path transform="translate(363,465)" d="m0 0h5v3l-8 1v-2l-3-1z" fill="#807DC6"/>
<path transform="translate(667,430)" d="m0 0h4v2l-4 2h-7l2-3z" fill="#7B78C9"/>
<path transform="translate(638,354)" d="m0 0h8l-1 3h-10z" fill="#7976CB"/>
<path transform="translate(337,311)" d="m0 0h3v3l-2 1h-8l2-3z" fill="#7D7AC8"/>
<path transform="translate(333,401)" d="m0 0 4 1 1 2-9 1v-2l-3-1z" fill="#817EC6"/>
<path transform="translate(458,190)" d="m0 0 1 3h2v11l-2-4-1-1z" fill="#7B78C9"/>
<path transform="translate(602,480)" d="m0 0 3 2v10l-3-4z" fill="#7B78C9"/>
<path transform="translate(656,432)" d="m0 0h5l1 3-9 1v-2l-2-1z" fill="#817EC6"/>
<path transform="translate(345,429)" d="m0 0 4 1 1 2-9 1v-2l-2-1z" fill="#817EC6"/>
<path transform="translate(644,374)" d="m0 0 4 1 2 2-10 1-1-3z" fill="#827FC6"/>
<path transform="translate(333,342)" d="m0 0 3 1-2 3h-8l2-3z" fill="#7B78C9"/>
<path transform="translate(317,324)" d="m0 0h8l-1 3h-9z" fill="#7A77CA"/>
<path transform="translate(642,323)" d="m0 0h8l-1 3h-9z" fill="#7A77CA"/>
<path transform="translate(344,229)" d="m0 0 3 3 1 7h-3l-1-3z" fill="#7A76C9"/>
<path transform="translate(599,212)" d="m0 0h6v2l-10 2v-3z" fill="#7A77CA"/>
<path transform="translate(421,206)" d="m0 0 3 1v9h-2l-1-3z" fill="#7D7AC7"/>
</svg>
