<svg viewBox="0 0 1950 660" xmlns="http://www.w3.org/2000/svg">
<defs>
<clipPath id="clip">
<rect height="660" width="1950" x="0" y="0"/>
</clipPath>
</defs>
<rect fill="#0B151D" height="660" stroke="darkblue" width="1950" x="0" y="0"/>
<line stroke="#333333" stroke-width="1" x1="200" x2="200" y1="0" y2="660"/>
<text clip-path="url(#clip)" dominant-baseline="middle" fill="#D4D4D4" font-family="monospace" font-size="10px" text-anchor="middle" x="200" y="10">
0
</text>
<line stroke="#333333" stroke-width="1" x1="300" x2="300" y1="0" y2="660"/>
<text clip-path="url(#clip)" dominant-baseline="middle" fill="#D4D4D4" font-family="monospace" font-size="10px" text-anchor="middle" x="300" y="10">
20
</text>
<line stroke="#333333" stroke-width="1" x1="400" x2="400" y1="0" y2="660"/>
<text clip-path="url(#clip)" dominant-baseline="middle" fill="#D4D4D4" font-family="monospace" font-size="10px" text-anchor="middle" x="400" y="10">
40
</text>
<line stroke="#333333" stroke-width="1" x1="500" x2="500" y1="0" y2="660"/>
<text clip-path="url(#clip)" dominant-baseline="middle" fill="#D4D4D4" font-family="monospace" font-size="10px" text-anchor="middle" x="500" y="10">
60
</text>
<line stroke="#333333" stroke-width="1" x1="600" x2="600" y1="0" y2="660"/>
<text clip-path="url(#clip)" dominant-baseline="middle" fill="#D4D4D4" font-family="monospace" font-size="10px" text-anchor="middle" x="600" y="10">
80
</text>
<line stroke="#333333" stroke-width="1" x1="700" x2="700" y1="0" y2="660"/>
<text clip-path="url(#clip)" dominant-baseline="middle" fill="#D4D4D4" font-family="monospace" font-size="10px" text-anchor="middle" x="700" y="10">
100
</text>
<line stroke="#333333" stroke-width="1" x1="800" x2="800" y1="0" y2="660"/>
<text clip-path="url(#clip)" dominant-baseline="middle" fill="#D4D4D4" font-family="monospace" font-size="10px" text-anchor="middle" x="800" y="10">
120
</text>
<line stroke="#333333" stroke-width="1" x1="900" x2="900" y1="0" y2="660"/>
<text clip-path="url(#clip)" dominant-baseline="middle" fill="#D4D4D4" font-family="monospace" font-size="10px" text-anchor="middle" x="900" y="10">
140
</text>
<line stroke="#333333" stroke-width="1" x1="1000" x2="1000" y1="0" y2="660"/>
<text clip-path="url(#clip)" dominant-baseline="middle" fill="#D4D4D4" font-family="monospace" font-size="10px" text-anchor="middle" x="1000" y="10">
160
</text>
<line stroke="#333333" stroke-width="1" x1="1100" x2="1100" y1="0" y2="660"/>
<text clip-path="url(#clip)" dominant-baseline="middle" fill="#D4D4D4" font-family="monospace" font-size="10px" text-anchor="middle" x="1100" y="10">
180
</text>
<line stroke="#333333" stroke-width="1" x1="1200" x2="1200" y1="0" y2="660"/>
<text clip-path="url(#clip)" dominant-baseline="middle" fill="#D4D4D4" font-family="monospace" font-size="10px" text-anchor="middle" x="1200" y="10">
200
</text>
<line stroke="#333333" stroke-width="1" x1="1300" x2="1300" y1="0" y2="660"/>
<text clip-path="url(#clip)" dominant-baseline="middle" fill="#D4D4D4" font-family="monospace" font-size="10px" text-anchor="middle" x="1300" y="10">
220
</text>
<line stroke="#333333" stroke-width="1" x1="1400" x2="1400" y1="0" y2="660"/>
<text clip-path="url(#clip)" dominant-baseline="middle" fill="#D4D4D4" font-family="monospace" font-size="10px" text-anchor="middle" x="1400" y="10">
240
</text>
<line stroke="#333333" stroke-width="1" x1="1500" x2="1500" y1="0" y2="660"/>
<text clip-path="url(#clip)" dominant-baseline="middle" fill="#D4D4D4" font-family="monospace" font-size="10px" text-anchor="middle" x="1500" y="10">
260
</text>
<line stroke="#333333" stroke-width="1" x1="1600" x2="1600" y1="0" y2="660"/>
<text clip-path="url(#clip)" dominant-baseline="middle" fill="#D4D4D4" font-family="monospace" font-size="10px" text-anchor="middle" x="1600" y="10">
280
</text>
<line stroke="#333333" stroke-width="1" x1="1700" x2="1700" y1="0" y2="660"/>
<text clip-path="url(#clip)" dominant-baseline="middle" fill="#D4D4D4" font-family="monospace" font-size="10px" text-anchor="middle" x="1700" y="10">
300
</text>
<line stroke="#333333" stroke-width="1" x1="1800" x2="1800" y1="0" y2="660"/>
<text clip-path="url(#clip)" dominant-baseline="middle" fill="#D4D4D4" font-family="monospace" font-size="10px" text-anchor="middle" x="1800" y="10">
320
</text>
<line stroke="#333333" stroke-width="1" x1="1900" x2="1900" y1="0" y2="660"/>
<text clip-path="url(#clip)" dominant-baseline="middle" fill="#D4D4D4" font-family="monospace" font-size="10px" text-anchor="middle" x="1900" y="10">
340
</text>
<text dominant-baseline="middle" fill="#D4D4D4" font-family="monospace" font-size="10px" text-anchor="start" x="3" y="10">
Time:
</text>
<text dominant-baseline="middle" fill="#D4D4D4" font-family="monospace" font-size="10px" text-anchor="start" x="3" xml:space="preserve" y="30">
.clock
<title>top.clock</title>
</text>
<path d="M 200 30 L 200 37 L 450 37 L 450 30" fill="none" stroke="#56C126" stroke-width="1"/>
<rect fill="#1C400C" height="14" stroke="none" width="248" x="451" y="23"/>
<path d="M 450 30 L 450 23 L 700 23 L 700 30" fill="none" stroke="#56C126" stroke-width="1"/>
<path d="M 700 30 L 700 37 L 950 37 L 950 30" fill="none" stroke="#56C126" stroke-width="1"/>
<rect fill="#1C400C" height="14" stroke="none" width="248" x="951" y="23"/>
<path d="M 950 30 L 950 23 L 1200 23 L 1200 30" fill="none" stroke="#56C126" stroke-width="1"/>
<path d="M 1200 30 L 1200 37 L 1450 37 L 1450 30" fill="none" stroke="#56C126" stroke-width="1"/>
<rect fill="#1C400C" height="14" stroke="none" width="248" x="1451" y="23"/>
<path d="M 1450 30 L 1450 23 L 1700 23 L 1700 30" fill="none" stroke="#56C126" stroke-width="1"/>
<path d="M 1700 30 L 1700 37 L 1950 37 L 1950 30" fill="none" stroke="#56C126" stroke-width="1"/>
<text dominant-baseline="middle" fill="#D4D4D4" font-family="monospace" font-size="10px" text-anchor="start" x="3" xml:space="preserve" y="50">
.input
<title>top.input</title>
</text>
<path d="M 200 50 L 203 43 L 452 43 L 455 50 L 452 57 L 203 57 Z" fill="none" stroke="#56C126" stroke-width="1"/>
<text dominant-baseline="middle" fill="#D4D4D4" font-family="monospace" font-size="10px" text-anchor="middle" x="327" xml:space="preserve" y="50">
{oe: 0, we: 0, data_in...
<title>{oe: 0, we: 0, data_in: 0000, sel: RA}</title>
</text>
<path d="M 455 50 L 458 43 L 952 43 L 955 50 L 952 57 L 458 57 Z" fill="none" stroke="#56C126" stroke-width="1"/>
<text dominant-baseline="middle" fill="#D4D4D4" font-family="monospace" font-size="10px" text-anchor="middle" x="705" xml:space="preserve" y="50">
{oe: 0, we: 1, data_in: 000f, sel: RA}
<title>{oe: 0, we: 1, data_in: 000f, sel: RA}</title>
</text>
<path d="M 955 50 L 958 43 L 1452 43 L 1455 50 L 1452 57 L 958 57 Z" fill="none" stroke="#56C126" stroke-width="1"/>
<text dominant-baseline="middle" fill="#D4D4D4" font-family="monospace" font-size="10px" text-anchor="middle" x="1205" xml:space="preserve" y="50">
{oe: 1, we: 0, data_in: 000f, sel: RA}
<title>{oe: 1, we: 0, data_in: 000f, sel: RA}</title>
</text>
<path d="M 1455 50 L 1458 43 L 1947 43 L 1950 50 L 1947 57 L 1458 57 Z" fill="none" stroke="#56C126" stroke-width="1"/>
<text dominant-baseline="middle" fill="#D4D4D4" font-family="monospace" font-size="10px" text-anchor="middle" x="1702" xml:space="preserve" y="50">
{oe: 0, we: 0, data_in: 0000, sel: RA}
<title>{oe: 0, we: 0, data_in: 0000, sel: RA}</title>
</text>
<text dominant-baseline="middle" fill="#D4D4D4" font-family="monospace" font-size="10px" text-anchor="start" x="3" xml:space="preserve" y="70">
   .oe
<title>top.input.oe</title>
</text>
<path d="M 200 70 L 200 77 L 955 77 L 955 70" fill="none" stroke="#56C126" stroke-width="1"/>
<rect fill="#1C400C" height="14" stroke="none" width="498" x="956" y="63"/>
<path d="M 955 70 L 955 63 L 1455 63 L 1455 70" fill="none" stroke="#56C126" stroke-width="1"/>
<path d="M 1455 70 L 1455 77 L 1950 77 L 1950 70" fill="none" stroke="#56C126" stroke-width="1"/>
<text dominant-baseline="middle" fill="#D4D4D4" font-family="monospace" font-size="10px" text-anchor="start" x="3" xml:space="preserve" y="90">
   .we
<title>top.input.we</title>
</text>
<path d="M 200 90 L 200 97 L 455 97 L 455 90" fill="none" stroke="#56C126" stroke-width="1"/>
<rect fill="#1C400C" height="14" stroke="none" width="498" x="456" y="83"/>
<path d="M 455 90 L 455 83 L 955 83 L 955 90" fill="none" stroke="#56C126" stroke-width="1"/>
<path d="M 955 90 L 955 97 L 1950 97 L 1950 90" fill="none" stroke="#56C126" stroke-width="1"/>
<text dominant-baseline="middle" fill="#D4D4D4" font-family="monospace" font-size="10px" text-anchor="start" x="3" xml:space="preserve" y="110">
   .data_in
<title>top.input.data_in</title>
</text>
<path d="M 200 110 L 203 103 L 452 103 L 455 110 L 452 117 L 203 117 Z" fill="none" stroke="#56C126" stroke-width="1"/>
<text dominant-baseline="middle" fill="#D4D4D4" font-family="monospace" font-size="10px" text-anchor="middle" x="327" xml:space="preserve" y="110">
0000
<title>0000</title>
</text>
<path d="M 455 110 L 458 103 L 1452 103 L 1455 110 L 1452 117 L 458 117 Z" fill="none" stroke="#56C126" stroke-width="1"/>
<text dominant-baseline="middle" fill="#D4D4D4" font-family="monospace" font-size="10px" text-anchor="middle" x="955" xml:space="preserve" y="110">
000f
<title>000f</title>
</text>
<path d="M 1455 110 L 1458 103 L 1947 103 L 1950 110 L 1947 117 L 1458 117 Z" fill="none" stroke="#56C126" stroke-width="1"/>
<text dominant-baseline="middle" fill="#D4D4D4" font-family="monospace" font-size="10px" text-anchor="middle" x="1702" xml:space="preserve" y="110">
0000
<title>0000</title>
</text>
<text dominant-baseline="middle" fill="#D4D4D4" font-family="monospace" font-size="10px" text-anchor="start" x="3" xml:space="preserve" y="130">
   .sel
<title>top.input.sel</title>
</text>
<path d="M 200 130 L 203 123 L 1947 123 L 1950 130 L 1947 137 L 203 137 Z" fill="none" stroke="#56C126" stroke-width="1"/>
<text dominant-baseline="middle" fill="#D4D4D4" font-family="monospace" font-size="10px" text-anchor="middle" x="1075" xml:space="preserve" y="130">
RA
<title>RA</title>
</text>
<text dominant-baseline="middle" fill="#D4D4D4" font-family="monospace" font-size="10px" text-anchor="start" x="3" xml:space="preserve" y="150">
      #RA
<title>top.input.sel#RA</title>
</text>
<path d="M 200 150 L 203 143 L 1947 143 L 1950 150 L 1947 157 L 203 157 Z" fill="none" stroke="#56C126" stroke-width="1"/>
<text dominant-baseline="middle" fill="#D4D4D4" font-family="monospace" font-size="10px" text-anchor="middle" x="1075" xml:space="preserve" y="150">

<title></title>
</text>
<text dominant-baseline="middle" fill="#D4D4D4" font-family="monospace" font-size="10px" text-anchor="start" x="3" xml:space="preserve" y="170">
      #RB
<title>top.input.sel#RB</title>
</text>
<text dominant-baseline="middle" fill="#D4D4D4" font-family="monospace" font-size="10px" text-anchor="start" x="3" xml:space="preserve" y="190">
      #RC
<title>top.input.sel#RC</title>
</text>
<text dominant-baseline="middle" fill="#D4D4D4" font-family="monospace" font-size="10px" text-anchor="start" x="3" xml:space="preserve" y="210">
      #IS
<title>top.input.sel#IS</title>
</text>
<text dominant-baseline="middle" fill="#D4D4D4" font-family="monospace" font-size="10px" text-anchor="start" x="3" xml:space="preserve" y="230">
      #XA
<title>top.input.sel#XA</title>
</text>
<text dominant-baseline="middle" fill="#D4D4D4" font-family="monospace" font-size="10px" text-anchor="start" x="3" xml:space="preserve" y="250">
      #XB
<title>top.input.sel#XB</title>
</text>
<text dominant-baseline="middle" fill="#D4D4D4" font-family="monospace" font-size="10px" text-anchor="start" x="3" xml:space="preserve" y="270">
      #BA
<title>top.input.sel#BA</title>
</text>
<text dominant-baseline="middle" fill="#D4D4D4" font-family="monospace" font-size="10px" text-anchor="start" x="3" xml:space="preserve" y="290">
      #BB
<title>top.input.sel#BB</title>
</text>
<text dominant-baseline="middle" fill="#D4D4D4" font-family="monospace" font-size="10px" text-anchor="start" x="3" xml:space="preserve" y="310">
.outputs
<title>top.outputs</title>
</text>
<path d="M 200 310 L 203 303 L 952 303 L 955 310 L 952 317 L 203 317 Z" fill="none" stroke="#56C126" stroke-width="1"/>
<text dominant-baseline="middle" fill="#D4D4D4" font-family="monospace" font-size="10px" text-anchor="middle" x="577" xml:space="preserve" y="310">
0000
<title>0000</title>
</text>
<path d="M 955 310 L 958 303 L 1452 303 L 1455 310 L 1452 317 L 958 317 Z" fill="none" stroke="#56C126" stroke-width="1"/>
<text dominant-baseline="middle" fill="#D4D4D4" font-family="monospace" font-size="10px" text-anchor="middle" x="1205" xml:space="preserve" y="310">
000f
<title>000f</title>
</text>
<path d="M 1455 310 L 1458 303 L 1947 303 L 1950 310 L 1947 317 L 1458 317 Z" fill="none" stroke="#56C126" stroke-width="1"/>
<text dominant-baseline="middle" fill="#D4D4D4" font-family="monospace" font-size="10px" text-anchor="middle" x="1702" xml:space="preserve" y="310">
0000
<title>0000</title>
</text>
<text dominant-baseline="middle" fill="#D4D4D4" font-family="monospace" font-size="10px" text-anchor="start" x="3" xml:space="preserve" y="330">
.registers.array.[0].dff.input
<title>top.registers.array.[0].dff.input</title>
</text>
<path d="M 200 330 L 203 323 L 452 323 L 455 330 L 452 337 L 203 337 Z" fill="none" stroke="#56C126" stroke-width="1"/>
<text dominant-baseline="middle" fill="#D4D4D4" font-family="monospace" font-size="10px" text-anchor="middle" x="327" xml:space="preserve" y="330">
0000
<title>0000</title>
</text>
<path d="M 455 330 L 458 323 L 1947 323 L 1950 330 L 1947 337 L 458 337 Z" fill="none" stroke="#56C126" stroke-width="1"/>
<text dominant-baseline="middle" fill="#D4D4D4" font-family="monospace" font-size="10px" text-anchor="middle" x="1202" xml:space="preserve" y="330">
000f
<title>000f</title>
</text>
<text dominant-baseline="middle" fill="#D4D4D4" font-family="monospace" font-size="10px" text-anchor="start" x="3" xml:space="preserve" y="350">
.registers.array.[0].dff.output
<title>top.registers.array.[0].dff.output</title>
</text>
<path d="M 200 350 L 203 343 L 947 343 L 950 350 L 947 357 L 203 357 Z" fill="none" stroke="#56C126" stroke-width="1"/>
<text dominant-baseline="middle" fill="#D4D4D4" font-family="monospace" font-size="10px" text-anchor="middle" x="575" xml:space="preserve" y="350">
0000
<title>0000</title>
</text>
<path d="M 950 350 L 953 343 L 1947 343 L 1950 350 L 1947 357 L 953 357 Z" fill="none" stroke="#56C126" stroke-width="1"/>
<text dominant-baseline="middle" fill="#D4D4D4" font-family="monospace" font-size="10px" text-anchor="middle" x="1450" xml:space="preserve" y="350">
000f
<title>000f</title>
</text>
<text dominant-baseline="middle" fill="#D4D4D4" font-family="monospace" font-size="10px" text-anchor="start" x="3" xml:space="preserve" y="370">
.registers.array.[1].dff.input
<title>top.registers.array.[1].dff.input</title>
</text>
<path d="M 200 370 L 203 363 L 1947 363 L 1950 370 L 1947 377 L 203 377 Z" fill="none" stroke="#56C126" stroke-width="1"/>
<text dominant-baseline="middle" fill="#D4D4D4" font-family="monospace" font-size="10px" text-anchor="middle" x="1075" xml:space="preserve" y="370">
0000
<title>0000</title>
</text>
<text dominant-baseline="middle" fill="#D4D4D4" font-family="monospace" font-size="10px" text-anchor="start" x="3" xml:space="preserve" y="390">
.registers.array.[1].dff.output
<title>top.registers.array.[1].dff.output</title>
</text>
<path d="M 200 390 L 203 383 L 1947 383 L 1950 390 L 1947 397 L 203 397 Z" fill="none" stroke="#56C126" stroke-width="1"/>
<text dominant-baseline="middle" fill="#D4D4D4" font-family="monospace" font-size="10px" text-anchor="middle" x="1075" xml:space="preserve" y="390">
0000
<title>0000</title>
</text>
<text dominant-baseline="middle" fill="#D4D4D4" font-family="monospace" font-size="10px" text-anchor="start" x="3" xml:space="preserve" y="410">
.registers.array.[2].dff.input
<title>top.registers.array.[2].dff.input</title>
</text>
<path d="M 200 410 L 203 403 L 1947 403 L 1950 410 L 1947 417 L 203 417 Z" fill="none" stroke="#56C126" stroke-width="1"/>
<text dominant-baseline="middle" fill="#D4D4D4" font-family="monospace" font-size="10px" text-anchor="middle" x="1075" xml:space="preserve" y="410">
0000
<title>0000</title>
</text>
<text dominant-baseline="middle" fill="#D4D4D4" font-family="monospace" font-size="10px" text-anchor="start" x="3" xml:space="preserve" y="430">
.registers.array.[2].dff.output
<title>top.registers.array.[2].dff.output</title>
</text>
<path d="M 200 430 L 203 423 L 1947 423 L 1950 430 L 1947 437 L 203 437 Z" fill="none" stroke="#56C126" stroke-width="1"/>
<text dominant-baseline="middle" fill="#D4D4D4" font-family="monospace" font-size="10px" text-anchor="middle" x="1075" xml:space="preserve" y="430">
0000
<title>0000</title>
</text>
<text dominant-baseline="middle" fill="#D4D4D4" font-family="monospace" font-size="10px" text-anchor="start" x="3" xml:space="preserve" y="450">
.registers.array.[3].dff.input
<title>top.registers.array.[3].dff.input</title>
</text>
<path d="M 200 450 L 203 443 L 1947 443 L 1950 450 L 1947 457 L 203 457 Z" fill="none" stroke="#56C126" stroke-width="1"/>
<text dominant-baseline="middle" fill="#D4D4D4" font-family="monospace" font-size="10px" text-anchor="middle" x="1075" xml:space="preserve" y="450">
0000
<title>0000</title>
</text>
<text dominant-baseline="middle" fill="#D4D4D4" font-family="monospace" font-size="10px" text-anchor="start" x="3" xml:space="preserve" y="470">
.registers.array.[3].dff.output
<title>top.registers.array.[3].dff.output</title>
</text>
<path d="M 200 470 L 203 463 L 1947 463 L 1950 470 L 1947 477 L 203 477 Z" fill="none" stroke="#56C126" stroke-width="1"/>
<text dominant-baseline="middle" fill="#D4D4D4" font-family="monospace" font-size="10px" text-anchor="middle" x="1075" xml:space="preserve" y="470">
0000
<title>0000</title>
</text>
<text dominant-baseline="middle" fill="#D4D4D4" font-family="monospace" font-size="10px" text-anchor="start" x="3" xml:space="preserve" y="490">
.registers.array.[4].dff.input
<title>top.registers.array.[4].dff.input</title>
</text>
<path d="M 200 490 L 203 483 L 1947 483 L 1950 490 L 1947 497 L 203 497 Z" fill="none" stroke="#56C126" stroke-width="1"/>
<text dominant-baseline="middle" fill="#D4D4D4" font-family="monospace" font-size="10px" text-anchor="middle" x="1075" xml:space="preserve" y="490">
0000
<title>0000</title>
</text>
<text dominant-baseline="middle" fill="#D4D4D4" font-family="monospace" font-size="10px" text-anchor="start" x="3" xml:space="preserve" y="510">
.registers.array.[4].dff.output
<title>top.registers.array.[4].dff.output</title>
</text>
<path d="M 200 510 L 203 503 L 1947 503 L 1950 510 L 1947 517 L 203 517 Z" fill="none" stroke="#56C126" stroke-width="1"/>
<text dominant-baseline="middle" fill="#D4D4D4" font-family="monospace" font-size="10px" text-anchor="middle" x="1075" xml:space="preserve" y="510">
0000
<title>0000</title>
</text>
<text dominant-baseline="middle" fill="#D4D4D4" font-family="monospace" font-size="10px" text-anchor="start" x="3" xml:space="preserve" y="530">
.registers.array.[5].dff.input
<title>top.registers.array.[5].dff.input</title>
</text>
<path d="M 200 530 L 203 523 L 1947 523 L 1950 530 L 1947 537 L 203 537 Z" fill="none" stroke="#56C126" stroke-width="1"/>
<text dominant-baseline="middle" fill="#D4D4D4" font-family="monospace" font-size="10px" text-anchor="middle" x="1075" xml:space="preserve" y="530">
0000
<title>0000</title>
</text>
<text dominant-baseline="middle" fill="#D4D4D4" font-family="monospace" font-size="10px" text-anchor="start" x="3" xml:space="preserve" y="550">
.registers.array.[5].dff.output
<title>top.registers.array.[5].dff.output</title>
</text>
<path d="M 200 550 L 203 543 L 1947 543 L 1950 550 L 1947 557 L 203 557 Z" fill="none" stroke="#56C126" stroke-width="1"/>
<text dominant-baseline="middle" fill="#D4D4D4" font-family="monospace" font-size="10px" text-anchor="middle" x="1075" xml:space="preserve" y="550">
0000
<title>0000</title>
</text>
<text dominant-baseline="middle" fill="#D4D4D4" font-family="monospace" font-size="10px" text-anchor="start" x="3" xml:space="preserve" y="570">
.registers.array.[6].dff.input
<title>top.registers.array.[6].dff.input</title>
</text>
<path d="M 200 570 L 203 563 L 1947 563 L 1950 570 L 1947 577 L 203 577 Z" fill="none" stroke="#56C126" stroke-width="1"/>
<text dominant-baseline="middle" fill="#D4D4D4" font-family="monospace" font-size="10px" text-anchor="middle" x="1075" xml:space="preserve" y="570">
0000
<title>0000</title>
</text>
<text dominant-baseline="middle" fill="#D4D4D4" font-family="monospace" font-size="10px" text-anchor="start" x="3" xml:space="preserve" y="590">
.registers.array.[6].dff.output
<title>top.registers.array.[6].dff.output</title>
</text>
<path d="M 200 590 L 203 583 L 1947 583 L 1950 590 L 1947 597 L 203 597 Z" fill="none" stroke="#56C126" stroke-width="1"/>
<text dominant-baseline="middle" fill="#D4D4D4" font-family="monospace" font-size="10px" text-anchor="middle" x="1075" xml:space="preserve" y="590">
0000
<title>0000</title>
</text>
<text dominant-baseline="middle" fill="#D4D4D4" font-family="monospace" font-size="10px" text-anchor="start" x="3" xml:space="preserve" y="610">
.registers.array.[7].dff.input
<title>top.registers.array.[7].dff.input</title>
</text>
<path d="M 200 610 L 203 603 L 1947 603 L 1950 610 L 1947 617 L 203 617 Z" fill="none" stroke="#56C126" stroke-width="1"/>
<text dominant-baseline="middle" fill="#D4D4D4" font-family="monospace" font-size="10px" text-anchor="middle" x="1075" xml:space="preserve" y="610">
0000
<title>0000</title>
</text>
<text dominant-baseline="middle" fill="#D4D4D4" font-family="monospace" font-size="10px" text-anchor="start" x="3" xml:space="preserve" y="630">
.registers.array.[7].dff.output
<title>top.registers.array.[7].dff.output</title>
</text>
<path d="M 200 630 L 203 623 L 1947 623 L 1950 630 L 1947 637 L 203 637 Z" fill="none" stroke="#56C126" stroke-width="1"/>
<text dominant-baseline="middle" fill="#D4D4D4" font-family="monospace" font-size="10px" text-anchor="middle" x="1075" xml:space="preserve" y="630">
0000
<title>0000</title>
</text>
<text dominant-baseline="middle" fill="#D4D4D4" font-family="monospace" font-size="10px" text-anchor="start" x="3" xml:space="preserve" y="650">
.reset
<title>top.reset</title>
</text>
<rect fill="#1C400C" height="14" stroke="none" width="253" x="201" y="643"/>
<path d="M 200 650 L 200 643 L 455 643 L 455 650" fill="none" stroke="#56C126" stroke-width="1"/>
<path d="M 455 650 L 455 657 L 1950 657 L 1950 650" fill="none" stroke="#56C126" stroke-width="1"/>
</svg>
