<svg xmlns="http://www.w3.org/2000/svg" xmlns:xlink="http://www.w3.org/1999/xlink" contentStyleType="text/css" data-diagram-type="TIMING" height="431px" preserveAspectRatio="none" style="width:257px;height:431px;background:#FFFFFF;" version="1.1" viewBox="0 0 257 431" width="257px" zoomAndPan="magnify"><defs/><g><line style="stroke:#333333;stroke-width:0.5;" x1="10" x2="10" y1="10" y2="401.4844"/><line style="stroke:#333333;stroke-width:0.5;" x1="240.4268" x2="240.4268" y1="10" y2="401.4844"/><line style="stroke:#333333;stroke-width:0.5;stroke-dasharray:3,5;" x1="85.4268" x2="85.4268" y1="10" y2="401.4844"/><line style="stroke:#333333;stroke-width:0.5;stroke-dasharray:3,5;" x1="135.4268" x2="135.4268" y1="10" y2="401.4844"/><line style="stroke:#333333;stroke-width:0.5;stroke-dasharray:3,5;" x1="185.4268" x2="185.4268" y1="10" y2="401.4844"/><line style="stroke:#333333;stroke-width:0.5;stroke-dasharray:3,5;" x1="235.4268" x2="235.4268" y1="10" y2="401.4844"/><line style="stroke:#333333;stroke-width:0.5;" x1="10" x2="240.4268" y1="10" y2="10"/><text fill="#333333" font-family="sans-serif" font-size="14" font-weight="bold" lengthAdjust="spacing" textLength="22.4082" x="15" y="22.9951">clk</text><line style="stroke:#333333;stroke-width:0.5;" x1="10" x2="38.4082" y1="27.2969" y2="27.2969"/><line style="stroke:#333333;stroke-width:0.5;" x1="38.4082" x2="48.4082" y1="27.2969" y2="10"/><line style="stroke:#006400;stroke-width:1.5;" x1="85.4268" x2="85.4268" y1="34.2969" y2="48.2969"/><line style="stroke:#006400;stroke-width:1.5;" x1="85.4268" x2="110.4268" y1="34.2969" y2="34.2969"/><line style="stroke:#006400;stroke-width:1.5;" x1="110.4268" x2="110.4268" y1="34.2969" y2="48.2969"/><line style="stroke:#006400;stroke-width:1.5;" x1="110.4268" x2="135.4268" y1="48.2969" y2="48.2969"/><line style="stroke:#006400;stroke-width:1.5;" x1="135.4268" x2="135.4268" y1="34.2969" y2="48.2969"/><line style="stroke:#006400;stroke-width:1.5;" x1="135.4268" x2="160.4268" y1="34.2969" y2="34.2969"/><line style="stroke:#006400;stroke-width:1.5;" x1="160.4268" x2="160.4268" y1="34.2969" y2="48.2969"/><line style="stroke:#006400;stroke-width:1.5;" x1="160.4268" x2="185.4268" y1="48.2969" y2="48.2969"/><line style="stroke:#006400;stroke-width:1.5;" x1="185.4268" x2="185.4268" y1="34.2969" y2="48.2969"/><line style="stroke:#006400;stroke-width:1.5;" x1="185.4268" x2="210.4268" y1="34.2969" y2="34.2969"/><line style="stroke:#006400;stroke-width:1.5;" x1="210.4268" x2="210.4268" y1="34.2969" y2="48.2969"/><line style="stroke:#006400;stroke-width:1.5;" x1="210.4268" x2="235.4268" y1="48.2969" y2="48.2969"/><line style="stroke:#006400;stroke-width:1.5;" x1="235.4268" x2="235.4268" y1="34.2969" y2="48.2969"/><line style="stroke:#006400;stroke-width:1.5;" x1="235.4268" x2="235.4268" y1="34.2969" y2="34.2969"/><line style="stroke:#333333;stroke-width:0.5;" x1="10" x2="240.4268" y1="56.2969" y2="56.2969"/><text fill="#333333" font-family="sans-serif" font-size="14" font-weight="bold" lengthAdjust="spacing" textLength="54.6465" x="15" y="76.1436">MA WE</text><line style="stroke:#006400;stroke-width:2;" x1="85.4268" x2="85.4268" y1="78.2969" y2="78.2969"/><line style="stroke:#006400;stroke-width:2;" x1="85.4268" x2="85.4268" y1="64.2969" y2="78.2969"/><line style="stroke:#006400;stroke-width:2;" x1="85.4268" x2="135.4268" y1="64.2969" y2="64.2969"/><line style="stroke:#006400;stroke-width:2;" x1="135.4268" x2="135.4268" y1="64.2969" y2="78.2969"/><line style="stroke:#006400;stroke-width:2;" x1="135.4268" x2="235.4268" y1="78.2969" y2="78.2969"/><line style="stroke:#333333;stroke-width:0.5;" x1="10" x2="240.4268" y1="86.2969" y2="86.2969"/><text fill="#333333" font-family="sans-serif" font-size="14" font-weight="bold" lengthAdjust="spacing" textLength="51.1055" x="15" y="106.1436">MA OE</text><line style="stroke:#006400;stroke-width:2;" x1="85.4268" x2="135.4268" y1="108.2969" y2="108.2969"/><line style="stroke:#006400;stroke-width:2;" x1="135.4268" x2="135.4268" y1="94.2969" y2="108.2969"/><line style="stroke:#006400;stroke-width:2;" x1="135.4268" x2="185.4268" y1="94.2969" y2="94.2969"/><line style="stroke:#006400;stroke-width:2;" x1="185.4268" x2="185.4268" y1="94.2969" y2="108.2969"/><line style="stroke:#006400;stroke-width:2;" x1="185.4268" x2="235.4268" y1="108.2969" y2="108.2969"/><line style="stroke:#333333;stroke-width:0.5;" x1="10" x2="240.4268" y1="116.2969" y2="116.2969"/><text fill="#333333" font-family="sans-serif" font-size="14" font-weight="bold" lengthAdjust="spacing" textLength="65.4268" x="15" y="136.1436">RAM WE</text><line style="stroke:#006400;stroke-width:2;" x1="85.4268" x2="235.4268" y1="138.2969" y2="138.2969"/><line style="stroke:#333333;stroke-width:0.5;" x1="10" x2="240.4268" y1="146.2969" y2="146.2969"/><text fill="#333333" font-family="sans-serif" font-size="14" font-weight="bold" lengthAdjust="spacing" textLength="61.8857" x="15" y="166.1436">RAM OE</text><line style="stroke:#006400;stroke-width:2;" x1="85.4268" x2="135.4268" y1="168.2969" y2="168.2969"/><line style="stroke:#006400;stroke-width:2;" x1="135.4268" x2="135.4268" y1="154.2969" y2="168.2969"/><line style="stroke:#006400;stroke-width:2;" x1="135.4268" x2="235.4268" y1="154.2969" y2="154.2969"/><line style="stroke:#333333;stroke-width:0.5;" x1="10" x2="240.4268" y1="176.2969" y2="176.2969"/><text fill="#333333" font-family="sans-serif" font-size="14" font-weight="bold" lengthAdjust="spacing" textLength="24.7666" x="15" y="189.292">MA</text><line style="stroke:#333333;stroke-width:0.5;" x1="10" x2="40.7666" y1="193.5938" y2="193.5938"/><line style="stroke:#333333;stroke-width:0.5;" x1="40.7666" x2="50.7666" y1="193.5938" y2="176.2969"/><polygon fill="#E85D04" points="97.4268,198.5938,123.4268,198.5938,135.4268,210.5938,123.4268,222.5938,97.4268,222.5938,85.4268,210.5938" style="stroke:#FF0000;stroke-width:1.5;"/><polygon fill="#E2E2F0" points="147.4268,198.5938,235.4268,198.5938,235.4268,222.5938,147.4268,222.5938,135.4268,210.5938" style="stroke:#E2E2F0;stroke-width:1.5;"/><path d="M235.4268,198.5938 L147.4268,198.5938 L135.4268,210.5938 L147.4268,222.5938 L235.4268,222.5938" fill="#E2E2F0" style="stroke:#006400;stroke-width:1.5;"/><text fill="#333333" font-family="sans-serif" font-size="12" font-weight="bold" lengthAdjust="spacing" textLength="4.1777" x="108.3379" y="214.748">&#160;</text><text fill="#333333" font-family="sans-serif" font-size="12" font-weight="bold" lengthAdjust="spacing" textLength="17.6367" x="147.4268" y="214.748">A1</text><line style="stroke:#333333;stroke-width:0.5;" x1="10" x2="240.4268" y1="232.5938" y2="232.5938"/><text fill="#333333" font-family="sans-serif" font-size="14" font-weight="bold" lengthAdjust="spacing" textLength="32.1221" x="15" y="245.5889">BUS</text><line style="stroke:#333333;stroke-width:0.5;" x1="10" x2="48.1221" y1="249.8906" y2="249.8906"/><line style="stroke:#333333;stroke-width:0.5;" x1="48.1221" x2="58.1221" y1="249.8906" y2="232.5938"/><polygon fill="#E2E2F0" points="97.4268,254.8906,123.4268,254.8906,135.4268,266.8906,123.4268,278.8906,97.4268,278.8906,85.4268,266.8906" style="stroke:#006400;stroke-width:1.5;"/><polygon fill="#E2E2F0" points="147.4268,254.8906,173.4268,254.8906,185.4268,266.8906,173.4268,278.8906,147.4268,278.8906,135.4268,266.8906" style="stroke:#006400;stroke-width:1.5;"/><polygon fill="#E2E2F0" points="197.4268,254.8906,235.4268,254.8906,235.4268,278.8906,197.4268,278.8906,185.4268,266.8906" style="stroke:#E2E2F0;stroke-width:1.5;"/><path d="M235.4268,254.8906 L197.4268,254.8906 L185.4268,266.8906 L197.4268,278.8906 L235.4268,278.8906" fill="#E2E2F0" style="stroke:#006400;stroke-width:1.5;"/><text fill="#333333" font-family="sans-serif" font-size="12" font-weight="bold" lengthAdjust="spacing" textLength="17.6367" x="101.6084" y="271.0449">A1</text><text fill="#333333" font-family="sans-serif" font-size="12" font-weight="bold" lengthAdjust="spacing" textLength="19.3184" x="150.7676" y="271.0449">[0]</text><text fill="#333333" font-family="sans-serif" font-size="12" font-weight="bold" lengthAdjust="spacing" textLength="28.6055" x="197.4268" y="271.0449">[A1]</text><line style="stroke:#333333;stroke-width:0.5;" x1="10" x2="240.4268" y1="288.8906" y2="288.8906"/><text fill="#333333" font-family="sans-serif" font-size="14" font-weight="bold" lengthAdjust="spacing" textLength="91.8477" x="15" y="301.8857">ram addr in</text><line style="stroke:#333333;stroke-width:0.5;" x1="10" x2="107.8477" y1="306.1875" y2="306.1875"/><line style="stroke:#333333;stroke-width:0.5;" x1="107.8477" x2="117.8477" y1="306.1875" y2="288.8906"/><polygon fill="#E2E2F0" points="97.4268,311.1875,123.4268,311.1875,135.4268,323.1875,123.4268,335.1875,97.4268,335.1875,85.4268,323.1875" style="stroke:#006400;stroke-width:1.5;"/><polygon fill="#E2E2F0" points="147.4268,311.1875,173.4268,311.1875,185.4268,323.1875,173.4268,335.1875,147.4268,335.1875,135.4268,323.1875" style="stroke:#006400;stroke-width:1.5;"/><polygon fill="#E2E2F0" points="197.4268,311.1875,235.4268,311.1875,235.4268,335.1875,197.4268,335.1875,185.4268,323.1875" style="stroke:#E2E2F0;stroke-width:1.5;"/><path d="M235.4268,311.1875 L197.4268,311.1875 L185.4268,323.1875 L197.4268,335.1875 L235.4268,335.1875" fill="#E2E2F0" style="stroke:#006400;stroke-width:1.5;"/><text fill="#333333" font-family="sans-serif" font-size="12" font-weight="bold" lengthAdjust="spacing" textLength="16.6992" x="102.0771" y="327.3418">00</text><text fill="#333333" font-family="sans-serif" font-size="12" font-weight="bold" lengthAdjust="spacing" textLength="17.6367" x="151.6084" y="327.3418">A1</text><text fill="#333333" font-family="sans-serif" font-size="12" font-weight="bold" lengthAdjust="spacing" textLength="16.6992" x="197.4268" y="327.3418">00</text><line style="stroke:#333333;stroke-width:0.5;" x1="10" x2="240.4268" y1="345.1875" y2="345.1875"/><text fill="#333333" font-family="sans-serif" font-size="14" font-weight="bold" lengthAdjust="spacing" textLength="73.1104" x="15" y="358.1826">RAM[MA]</text><line style="stroke:#333333;stroke-width:0.5;" x1="10" x2="89.1104" y1="362.4844" y2="362.4844"/><line style="stroke:#333333;stroke-width:0.5;" x1="89.1104" x2="99.1104" y1="362.4844" y2="345.1875"/><polygon fill="#E85D04" points="97.4268,367.4844,123.4268,367.4844,135.4268,379.4844,123.4268,391.4844,97.4268,391.4844,85.4268,379.4844" style="stroke:#FF0000;stroke-width:1.5;"/><polygon fill="#E2E2F0" points="147.4268,367.4844,235.4268,367.4844,235.4268,391.4844,147.4268,391.4844,135.4268,379.4844" style="stroke:#E2E2F0;stroke-width:1.5;"/><path d="M235.4268,367.4844 L147.4268,367.4844 L135.4268,379.4844 L147.4268,391.4844 L235.4268,391.4844" fill="#E2E2F0" style="stroke:#006400;stroke-width:1.5;"/><text fill="#333333" font-family="sans-serif" font-size="12" font-weight="bold" lengthAdjust="spacing" textLength="4.1777" x="108.3379" y="383.6387">&#160;</text><text fill="#333333" font-family="sans-serif" font-size="12" font-weight="bold" lengthAdjust="spacing" textLength="28.6055" x="147.4268" y="383.6387">[A1]</text><line style="stroke:#333333;stroke-width:2;" x1="85.4268" x2="85.4268" y1="401.4844" y2="406.4844"/><line style="stroke:#333333;stroke-width:2;" x1="135.4268" x2="135.4268" y1="401.4844" y2="406.4844"/><line style="stroke:#333333;stroke-width:2;" x1="185.4268" x2="185.4268" y1="401.4844" y2="406.4844"/><line style="stroke:#333333;stroke-width:2;" x1="235.4268" x2="235.4268" y1="401.4844" y2="406.4844"/><line style="stroke:#333333;stroke-width:2;" x1="85.4268" x2="235.4268" y1="401.4844" y2="401.4844"/><text fill="#333333" font-family="sans-serif" font-size="11" lengthAdjust="spacing" textLength="6.9985" x="81.9275" y="417.6948">0</text><text fill="#333333" font-family="sans-serif" font-size="11" lengthAdjust="spacing" textLength="13.9971" x="128.4282" y="417.6948">50</text><text fill="#333333" font-family="sans-serif" font-size="11" lengthAdjust="spacing" textLength="20.9956" x="174.929" y="417.6948">100</text><!--SRC=[TP31QiCm38RlUWgXle032vJk4Wzs38MMqaCemxNDOfh69Mu9U_l9SHUdXvqiwzV__R9rv_K5INSNGXMGJnpTlSMR7PmtM0eukruDFuXKIpn-4iQng_eQxOkopOfVA3jPpwP1NLzSKTikDFQ1zhrsmKOa9LnkVHpsK-_y2Bd9HbJ63EZwIOnrLZcYgUKfeG0g0TFcw0AsxhlbMoo9S6NNfH5lxvthxMPd3N18b6G1YHvGiFc_QQZA1Rhp8qp_CEUavytNFoJJqmPSF0Ef4ITw1ZMou1ggGeZCY_1vDWta3Ny1]--></g></svg>